<?xml version="1.0" encoding="utf-8"?>
<!-- Generator: Adobe Illustrator 24.1.2, SVG Export Plug-In . SVG Version: 6.00 Build 0)  -->
<svg version="1.1" id="Layer_1" xmlns="http://www.w3.org/2000/svg" xmlns:xlink="http://www.w3.org/1999/xlink" x="0px" y="0px"
	 viewBox="0 0 40 40" style="enable-background:new 0 0 40 40;" xml:space="preserve">
<style type="text/css">
	.st0{fill:#2F2F2F;}
	.st1{fill:#323232;}
	.st2{fill:#363636;}
	.st3{fill:#343434;}
	.st4{fill:#DDDDDC;}
	.st5{fill:#D5425D;}
	.st6{fill:#764295;}
	.st7{fill:#313131;}
	.st8{fill:#E77D44;}
	.st9{fill:#E5BD44;}
	.st10{fill:#3B8E46;}
	.st11{fill:#4393E8;}
	.st12{fill:#DEDDDD;}
</style>
<g>
	<path class="st0" d="M20,20.59c-5.37,0-10.74,0-16.11,0c-1.08,0-1.7-0.62-1.7-1.71c0-1.22,0-2.44,0-3.66
		c0-0.97,0.65-1.62,1.62-1.62c10.8,0,21.59,0,32.39,0c0.97,0,1.62,0.65,1.62,1.62c0,1.25,0,2.5,0,3.75c0,0.95-0.66,1.61-1.61,1.61
		C30.81,20.59,25.41,20.59,20,20.59z M19.98,20.02c5.39,0,10.77,0,16.16,0c0.73,0,1.1-0.38,1.1-1.11c0-1.21,0-2.42,0-3.63
		c0-0.7-0.38-1.09-1.07-1.09c-10.77,0-21.55,0-32.32,0c-0.69,0-1.08,0.39-1.08,1.08c0,1.21,0,2.42,0,3.63
		c0,0.74,0.37,1.11,1.12,1.11C9.26,20.02,14.62,20.02,19.98,20.02z"/>
	<path class="st1" d="M9.63,21.99c-0.01-0.29,0.19-0.19,0.32-0.2c0.17-0.01,0.1,0.13,0.1,0.21c0.01,0.38,0,0.76,0,1.15
		c0,0.7-0.3,1-1.01,0.99c-0.21,0-0.41-0.05-0.6-0.13c-0.12-0.05-0.15-0.1-0.09-0.23c0.06-0.12,0.11-0.17,0.24-0.09
		c0.11,0.06,0.24,0.09,0.36,0.11c0.47,0.06,0.69-0.15,0.69-0.64C9.09,23.5,8.7,23.49,8.4,23.14C8.13,22.82,8.14,22.3,8.42,22
		C8.73,21.67,9.15,21.66,9.63,21.99z M9.12,23.08c0.3,0,0.53-0.22,0.53-0.5c0-0.28-0.23-0.5-0.53-0.51c-0.29,0-0.51,0.2-0.51,0.49
		C8.61,22.85,8.83,23.08,9.12,23.08z"/>
	<path class="st2" d="M18.76,23.35c0.04,0.29-0.15,0.19-0.27,0.21c-0.17,0.02-0.15-0.09-0.15-0.2c0-0.7,0.01-1.4,0-2.1
		c0-0.19,0.08-0.2,0.23-0.2c0.15,0,0.21,0.03,0.2,0.19c-0.02,0.24,0,0.49,0,0.74c0.49-0.35,0.89-0.34,1.2,0
		c0.32,0.35,0.33,0.98,0,1.34C19.66,23.68,19.24,23.7,18.76,23.35z M19.78,22.69c0-0.35-0.2-0.6-0.5-0.61
		c-0.3,0-0.52,0.25-0.53,0.59c0,0.34,0.21,0.6,0.51,0.61C19.56,23.28,19.78,23.03,19.78,22.69z"/>
	<path class="st2" d="M2.86,22.01c0.47-0.35,0.87-0.35,1.19-0.02c0.33,0.34,0.34,0.98,0.03,1.34c-0.31,0.35-0.73,0.37-1.22,0.03
		c0,0.21-0.01,0.41,0,0.6c0.01,0.16-0.1,0.14-0.19,0.13c-0.09-0.01-0.24,0.07-0.24-0.13c0-0.68,0-1.35,0-2.03
		c0-0.13,0.06-0.14,0.16-0.14C2.75,21.79,2.93,21.74,2.86,22.01z M3.89,22.67c0-0.35-0.22-0.6-0.51-0.59c-0.3,0-0.51,0.26-0.51,0.6
		c0,0.34,0.22,0.59,0.52,0.59C3.68,23.27,3.89,23.02,3.89,22.67z"/>
	<path class="st3" d="M21.69,23.36c-0.27,0.25-0.55,0.31-0.86,0.19c-0.24-0.09-0.35-0.28-0.34-0.54c0.01-0.25,0.14-0.42,0.38-0.5
		c0.21-0.07,0.44-0.07,0.66-0.03c0.05,0.01,0.13,0.07,0.17-0.01c0.03-0.06,0-0.14-0.05-0.2c-0.08-0.11-0.19-0.14-0.31-0.16
		c-0.15-0.01-0.31,0-0.44,0.06c-0.13,0.06-0.16-0.01-0.2-0.1c-0.06-0.15-0.03-0.22,0.13-0.26c0.13-0.03,0.26-0.07,0.39-0.08
		c0.63-0.03,0.89,0.23,0.9,0.86c0,0.25,0.01,0.49,0,0.74c0,0.08,0.07,0.22-0.09,0.21C21.89,23.55,21.67,23.69,21.69,23.36z
		 M21.35,22.75c-0.29,0-0.45,0.09-0.46,0.26c-0.01,0.16,0.13,0.26,0.35,0.26c0.27,0,0.5-0.16,0.47-0.36
		C21.67,22.68,21.46,22.79,21.35,22.75z"/>
	<path class="st3" d="M12.9,22.8c-0.17,0-0.34,0.01-0.5,0c-0.15-0.01-0.15,0.05-0.1,0.16c0.14,0.32,0.51,0.43,0.82,0.2
		c0.17-0.13,0.25-0.03,0.32,0.07c0.09,0.12-0.06,0.16-0.12,0.2c-0.34,0.26-0.86,0.23-1.17-0.05c-0.33-0.29-0.4-0.81-0.18-1.2
		c0.21-0.37,0.63-0.53,1.05-0.39c0.34,0.11,0.62,0.57,0.57,0.91c-0.02,0.11-0.08,0.1-0.16,0.1C13.25,22.8,13.07,22.8,12.9,22.8z
		 M13.16,22.5c-0.08-0.32-0.23-0.44-0.48-0.42c-0.24,0.01-0.38,0.16-0.41,0.42C12.56,22.5,12.85,22.5,13.16,22.5z"/>
	<path class="st3" d="M7.91,22.68c-0.01,0.53-0.44,0.93-0.98,0.93c-0.53-0.01-0.95-0.43-0.94-0.94c0.01-0.53,0.44-0.93,0.98-0.93
		C7.5,21.75,7.91,22.16,7.91,22.68z M7.49,22.68c0-0.34-0.24-0.6-0.54-0.6c-0.31,0-0.55,0.25-0.55,0.59c0,0.34,0.23,0.6,0.54,0.6
		C7.26,23.28,7.49,23.02,7.49,22.68z"/>
	<path class="st3" d="M24.58,21.74c0.16-0.01,0.32,0.04,0.46,0.1c0.07,0.03,0.23,0.02,0.15,0.19c-0.06,0.14-0.13,0.23-0.3,0.12
		c-0.11-0.07-0.24-0.09-0.37-0.08c-0.1,0.01-0.17,0.05-0.2,0.14c-0.03,0.11,0.05,0.16,0.13,0.2c0.13,0.05,0.27,0.1,0.4,0.15
		c0.31,0.12,0.44,0.29,0.41,0.56c-0.02,0.25-0.22,0.44-0.52,0.48c-0.29,0.04-0.55-0.04-0.8-0.19c-0.11-0.06-0.08-0.13-0.03-0.21
		c0.06-0.08,0.09-0.17,0.22-0.08c0.15,0.11,0.33,0.16,0.52,0.15c0.11-0.01,0.21-0.05,0.23-0.17c0.02-0.12-0.07-0.17-0.16-0.2
		c-0.11-0.04-0.23-0.07-0.34-0.11c-0.34-0.12-0.49-0.31-0.45-0.58C23.99,21.93,24.24,21.74,24.58,21.74z"/>
	<path class="st3" d="M16.16,23.61c-0.15,0-0.37-0.07-0.57-0.19c-0.11-0.06-0.1-0.13-0.03-0.21c0.06-0.07,0.08-0.18,0.21-0.09
		c0.15,0.1,0.31,0.16,0.49,0.15c0.12,0,0.23-0.03,0.25-0.17c0.02-0.13-0.08-0.18-0.18-0.21c-0.15-0.05-0.31-0.09-0.45-0.15
		c-0.2-0.08-0.33-0.22-0.32-0.46c0.01-0.24,0.14-0.4,0.36-0.49c0.3-0.11,0.58-0.03,0.85,0.1c0.09,0.04,0.09,0.1,0.03,0.17
		c-0.05,0.06-0.04,0.21-0.19,0.14c-0.14-0.06-0.27-0.13-0.43-0.12c-0.11,0-0.2,0.04-0.23,0.14c-0.04,0.12,0.06,0.17,0.15,0.21
		c0.11,0.05,0.22,0.08,0.34,0.12c0.38,0.13,0.51,0.31,0.46,0.62C16.84,23.43,16.59,23.61,16.16,23.61z"/>
	<path class="st3" d="M14.51,23.61c-0.12,0-0.32-0.06-0.5-0.16c-0.09-0.05-0.19-0.09-0.09-0.23c0.07-0.11,0.12-0.17,0.26-0.07
		c0.15,0.1,0.32,0.15,0.5,0.13c0.1-0.01,0.19-0.05,0.21-0.16c0.03-0.12-0.06-0.18-0.15-0.21c-0.16-0.06-0.32-0.1-0.47-0.16
		c-0.21-0.09-0.34-0.23-0.33-0.47c0.01-0.24,0.15-0.4,0.37-0.48c0.29-0.1,0.56-0.03,0.83,0.1c0.08,0.04,0.12,0.09,0.05,0.16
		c-0.06,0.06-0.04,0.23-0.21,0.14c-0.13-0.07-0.28-0.13-0.43-0.12c-0.1,0.01-0.19,0.04-0.22,0.15c-0.02,0.11,0.06,0.16,0.14,0.19
		c0.11,0.05,0.22,0.08,0.33,0.12c0.38,0.13,0.52,0.31,0.47,0.61C15.22,23.44,14.96,23.61,14.51,23.61z"/>
	<path class="st2" d="M11.01,22.11c0.14-0.18,0.26-0.33,0.45-0.36c0.07-0.01,0.18-0.07,0.17,0.07c-0.01,0.12,0.1,0.28-0.08,0.34
		c-0.44,0.15-0.55,0.29-0.55,0.74c0,0.17-0.01,0.34,0,0.5c0.02,0.19-0.1,0.15-0.21,0.15c-0.11,0-0.22,0.03-0.21-0.16
		c0.01-0.47,0.01-0.94,0-1.41c0-0.17,0.04-0.22,0.21-0.21c0.15,0,0.25,0.02,0.21,0.2C11,22.01,11.01,22.03,11.01,22.11z"/>
	<path class="st2" d="M23.03,22.12c0.14-0.18,0.26-0.33,0.45-0.36c0.06-0.01,0.17-0.06,0.17,0.05c-0.01,0.12,0.11,0.3-0.08,0.37
		c-0.43,0.15-0.54,0.29-0.55,0.74c0,0.16-0.02,0.32,0,0.48c0.02,0.19-0.09,0.18-0.21,0.18c-0.13,0-0.22,0-0.21-0.18
		c0.01-0.44,0-0.87,0.01-1.31c0-0.12-0.08-0.3,0.18-0.28C23.02,21.8,23.02,21.78,23.03,22.12z"/>
	<path class="st2" d="M5.16,22.12c0.15-0.19,0.26-0.33,0.45-0.37c0.07-0.01,0.18-0.07,0.17,0.07c-0.01,0.12,0.1,0.28-0.08,0.34
		c-0.44,0.16-0.55,0.29-0.55,0.76c0,0.13-0.02,0.26,0,0.38c0.03,0.22-0.05,0.27-0.26,0.26c-0.15-0.01-0.17-0.06-0.17-0.19
		c0.01-0.47,0.01-0.94,0-1.41c-0.01-0.18,0.07-0.19,0.21-0.19c0.12,0.01,0.25-0.02,0.21,0.17C5.16,21.99,5.16,22.02,5.16,22.12z"/>
	<path class="st0" d="M25.71,23.3c-0.05-0.2,0.06-0.22,0.23-0.23c0.22-0.02,0.21,0.1,0.22,0.25c0.01,0.17-0.02,0.24-0.22,0.24
		C25.7,23.57,25.67,23.48,25.71,23.3z"/>
	<path class="st0" d="M27.05,23.33c0.06,0.21-0.05,0.23-0.22,0.24c-0.25,0.02-0.2-0.13-0.22-0.27c-0.02-0.18,0.05-0.21,0.22-0.22
		C27.04,23.07,27.1,23.15,27.05,23.33z"/>
	<path class="st0" d="M27.96,23.34c0.05,0.19-0.05,0.22-0.22,0.23c-0.24,0.02-0.2-0.12-0.22-0.27c-0.03-0.21,0.09-0.21,0.24-0.22
		C27.99,23.05,27.98,23.19,27.96,23.34z"/>
	<path class="st4" d="M19.98,20.02c-5.36,0-10.73,0-16.09,0c-0.75,0-1.12-0.37-1.12-1.11c0-1.21,0-2.42,0-3.63
		c0-0.7,0.38-1.08,1.08-1.08c10.77,0,21.55,0,32.32,0c0.69,0,1.07,0.39,1.07,1.09c0,1.21,0,2.42,0,3.63c0,0.73-0.37,1.11-1.1,1.11
		C30.76,20.02,25.37,20.02,19.98,20.02z M26.28,17.87c-0.05,0.21,0.04,0.28,0.24,0.25c0.08-0.01,0.16-0.01,0.24,0
		c0.2,0.03,0.28-0.05,0.23-0.25c0-0.11,0-0.22,0.01-0.33c0.14,0,0.29,0,0.43,0c0.67,0,0.67,0,0.64-0.66c0-0.01,0-0.02,0-0.02
		c0.01-0.1-0.03-0.14-0.13-0.14c-0.31,0.01-0.62,0.01-0.93,0.01c0-0.18,0-0.35-0.01-0.53c0-0.02,0.01-0.03,0.01-0.05
		c0.36,0,0.71-0.01,1.07,0c0.15,0,0.19-0.04,0.19-0.19c-0.01-0.17-0.01-0.35,0-0.52c0.01-0.14-0.04-0.19-0.19-0.19
		c-0.36,0.01-0.71,0-1.07-0.01c0-0.17-0.01-0.34,0-0.5c0.02-0.19-0.05-0.22-0.23-0.22c-7.51,0-15.01,0-22.52,0
		c-0.54,0-0.88,0.29-0.99,0.81c-0.04,0.29-0.02,0.57-0.01,0.86c0,0.29,0,0.57,0,0.86c0,0.27,0,0.54,0,0.82c0,0.28,0,0.55,0.01,0.83
		c0.1,0.57,0.45,0.85,1.06,0.85c7.38,0,14.76,0,22.14,0c0.54,0,0.54,0,0.53-0.53c0.21,0,0.41,0.01,0.62,0
		c0.22-0.01,0.52,0.1,0.63-0.05c0.11-0.15,0.03-0.44,0.04-0.67c0.01-0.12-0.04-0.17-0.16-0.16c-0.33,0.01-0.65,0.01-0.98,0
		c-0.14,0-0.16,0.06-0.15,0.17c0.01,0.24,0,0.48,0,0.71c-0.47,0-0.95,0-1.42,0c-0.34,0-0.34,0-0.36-0.32c0-0.28,0-0.55,0-0.83
		c0-0.27,0-0.54,0-0.81c0-0.29,0-0.57,0-0.86c0-0.29,0-0.57,0-0.86c0.02-0.14,0.13-0.09,0.21-0.09c0.53,0,1.05-0.01,1.58-0.01
		c0,0.3,0,0.61,0,0.91c-0.24,0.03-0.49-0.06-0.72,0.05c0,0.09,0,0.17-0.01,0.26c-0.03,0.2,0.04,0.29,0.26,0.26
		c0.15-0.02,0.31,0,0.47,0c0,0.27,0,0.54,0,0.82c-0.14,0-0.27,0-0.41,0C26.26,17.53,26.26,17.53,26.28,17.87z M31.35,17.16
		c-0.02,0.01-0.03,0.02-0.05,0.03c-0.35-0.45-0.7-0.9-1.05-1.35c-0.48-0.61-0.48-0.61-1.26-0.59c-0.13,0-0.18,0.04-0.18,0.17
		c0.01,1.15,0,2.3,0,3.44c0,0.13,0.05,0.16,0.17,0.16c0.23-0.01,0.46-0.01,0.69,0c0.16,0.01,0.18-0.06,0.18-0.19
		c-0.01-0.53,0-1.07,0-1.6c0-0.07-0.02-0.14,0.04-0.22c0.05,0.06,0.1,0.12,0.14,0.17c0.44,0.57,0.88,1.13,1.32,1.7
		c0.06,0.08,0.11,0.15,0.23,0.14c0.21-0.01,0.43-0.01,0.65,0c0.12,0,0.15-0.04,0.15-0.15c0-1.16,0-2.31,0-3.47
		c0-0.11-0.03-0.16-0.15-0.15c-0.22,0.01-0.43,0.02-0.65,0c-0.2-0.02-0.24,0.07-0.23,0.24C31.35,16.05,31.35,16.6,31.35,17.16z
		 M34.49,15.25c-0.32,0-0.64-0.01-0.96,0c-0.23,0.01-0.54-0.1-0.66,0.05c-0.11,0.14-0.03,0.44-0.04,0.67
		c-0.01,0.17,0.06,0.2,0.21,0.19c0.22-0.01,0.45,0.01,0.67-0.01c0.2-0.02,0.26,0.04,0.25,0.25c-0.01,0.8,0,1.61-0.01,2.41
		c0,0.17,0.05,0.22,0.21,0.21c0.21-0.01,0.43-0.01,0.64,0c0.16,0.01,0.2-0.05,0.19-0.2c-0.01-0.75,0-1.5,0-2.24
		c0-0.42,0-0.41,0.43-0.42c0.23,0,0.53,0.1,0.66-0.05c0.13-0.15,0.02-0.44,0.04-0.67c0.02-0.17-0.07-0.19-0.21-0.19
		C35.44,15.25,34.96,15.25,34.49,15.25z"/>
	<path class="st5" d="M3.27,15.33c0.11-0.53,0.46-0.81,0.99-0.81c7.51,0,15.01,0,22.52,0c0.17,0,0.25,0.04,0.23,0.22
		c-0.02,0.17,0,0.33,0,0.5c0,0,0,0,0,0c-0.53,0-1.05,0-1.58,0.01c-0.08,0-0.19-0.04-0.21,0.09c-0.22,0-0.44,0-0.66,0
		c-0.01-0.05-0.03-0.09-0.09-0.09c-0.33,0-0.65,0-0.98,0c-0.07,0-0.09,0.06-0.13,0.09c-0.55,0-1.1,0-1.65,0.01
		c-0.05-0.05-0.09-0.1-0.17-0.1c-0.3,0-0.6,0-0.9,0c-0.07,0-0.1,0.03-0.11,0.09c-0.18,0-0.36,0-0.54,0
		c-0.03-0.11-0.11-0.09-0.19-0.09c-0.89,0-1.78,0-2.67,0c-0.07,0-0.17-0.03-0.18,0.09c-0.14,0-0.27,0-0.41,0
		c0-0.02,0-0.04-0.01-0.04c-0.38-0.07-0.76-0.09-1.13,0.01c-0.01,0-0.02,0.03-0.03,0.04c-0.54,0-1.08,0-1.62,0
		c-0.03-0.05-0.06-0.09-0.12-0.09c-0.33,0-0.66,0-0.99,0c-0.06,0-0.08,0.04-0.08,0.09c-0.37,0-0.75,0.01-1.12,0.01
		c-0.6-0.22-1.19-0.23-1.79,0c-0.56,0-1.12,0-1.69-0.01c-0.01-0.05-0.03-0.09-0.09-0.09c-0.33,0-0.65,0-0.98,0
		c-0.07,0-0.09,0.06-0.13,0.09c-0.55,0-1.1,0-1.65,0.01c-0.05-0.05-0.09-0.1-0.17-0.1c-0.3,0-0.6,0-0.9,0
		c-0.07,0-0.1,0.03-0.11,0.09C3.7,15.33,3.48,15.33,3.27,15.33z"/>
	<path class="st6" d="M25.22,18.69c0.02,0.32,0.02,0.32,0.36,0.32c0.47,0,0.95,0,1.42,0l0,0c0,0.53,0,0.53-0.53,0.53
		c-7.38,0-14.76,0-22.14,0c-0.61,0-0.96-0.28-1.06-0.85c0.22,0,0.43,0,0.65,0c0.02,0.32,0.02,0.32,0.36,0.32c0.1,0,0.21,0,0.31,0
		c0.33,0,0.33,0,0.38-0.32c0.64,0,1.28,0,1.92,0c0.02,0.32,0.02,0.32,0.34,0.32c0.13,0,0.26,0,0.38,0c0.32,0,0.32,0,0.34-0.32
		c0.42,0,0.84-0.01,1.26-0.01c0.51,0.33,1.05,0.49,1.66,0.39c0.34-0.06,0.64-0.21,0.93-0.39c0.69,0.01,1.38,0.01,2.07,0.02
		c0.1,0.37,0.38,0.36,0.69,0.37c0.31,0.01,0.54-0.03,0.61-0.37c0.58,0,1.17,0,1.75,0c0.02,0.32,0.02,0.32,0.36,0.32
		c0.79,0,1.59,0,2.38,0c0.32,0,0.32,0,0.34-0.32c0.17,0,0.34,0,0.51,0c0.02,0.32,0.02,0.32,0.34,0.32c0.11,0,0.22,0,0.33,0
		c0.33,0,0.33,0,0.37-0.32c0.64,0,1.28,0,1.92,0c0.02,0.32,0.02,0.32,0.34,0.32c0.13,0,0.26,0,0.38,0c0.32,0,0.32,0,0.34-0.32
		C24.78,18.69,25,18.69,25.22,18.69z"/>
	<path class="st7" d="M31.35,17.16c0-0.56,0.01-1.11,0-1.67c0-0.18,0.03-0.26,0.23-0.24c0.21,0.02,0.43,0.01,0.65,0
		c0.12,0,0.15,0.04,0.15,0.15c0,1.16,0,2.31,0,3.47c0,0.11-0.03,0.16-0.15,0.15c-0.22-0.01-0.43-0.01-0.65,0
		c-0.12,0.01-0.17-0.07-0.23-0.14c-0.44-0.57-0.88-1.13-1.32-1.7c-0.04-0.05-0.09-0.11-0.14-0.17c-0.06,0.08-0.04,0.15-0.04,0.22
		c0,0.53,0,1.07,0,1.6c0,0.14-0.02,0.2-0.18,0.19c-0.23-0.01-0.46-0.01-0.69,0c-0.12,0-0.17-0.03-0.17-0.16c0-1.15,0.01-2.3,0-3.44
		c0-0.14,0.04-0.17,0.18-0.17c0.78-0.02,0.78-0.02,1.26,0.59c0.35,0.45,0.7,0.9,1.05,1.35C31.32,17.18,31.33,17.17,31.35,17.16z"/>
	<path class="st1" d="M34.49,15.25c0.48,0,0.96,0,1.43,0c0.14,0,0.23,0.02,0.21,0.19c-0.02,0.23,0.09,0.52-0.04,0.67
		c-0.14,0.15-0.44,0.04-0.66,0.05C35,16.17,35,16.16,35,16.58c0,0.75,0,1.5,0,2.24c0,0.15-0.03,0.21-0.19,0.2
		c-0.21-0.01-0.43-0.01-0.64,0c-0.16,0.01-0.22-0.04-0.21-0.21c0.01-0.8,0-1.61,0.01-2.41c0-0.2-0.06-0.26-0.25-0.25
		c-0.22,0.02-0.45,0-0.67,0.01c-0.15,0.01-0.22-0.02-0.21-0.19c0.02-0.23-0.07-0.53,0.04-0.67c0.12-0.15,0.43-0.04,0.66-0.05
		C33.85,15.24,34.17,15.25,34.49,15.25z"/>
	<path class="st3" d="M27,16.15c0-0.3,0-0.61,0-0.91c0,0,0,0,0,0c0.36,0,0.71,0.01,1.07,0.01c0.15,0,0.19,0.05,0.19,0.19
		c-0.01,0.17-0.01,0.35,0,0.52c0.01,0.14-0.04,0.19-0.19,0.19C27.71,16.13,27.36,16.14,27,16.15C27,16.14,27,16.15,27,16.15z"/>
	<path class="st7" d="M27,19.02c0-0.24,0-0.48,0-0.71c0-0.11,0.02-0.17,0.15-0.17c0.33,0.01,0.65,0.01,0.98,0
		c0.12,0,0.17,0.04,0.16,0.16c-0.01,0.23,0.07,0.52-0.04,0.67c-0.11,0.15-0.41,0.04-0.63,0.05C27.41,19.02,27.2,19.01,27,19.02
		C27,19.01,27,19.02,27,19.02z"/>
	<path class="st0" d="M27,16.72c0.31,0,0.62,0,0.93-0.01c0.11,0,0.15,0.04,0.13,0.14c0,0.01,0,0.02,0,0.02
		c0.03,0.66,0.03,0.66-0.64,0.66c-0.14,0-0.29,0-0.43,0l0,0C27,17.26,27,16.99,27,16.72C27,16.72,27,16.72,27,16.72z"/>
	<path class="st8" d="M3.27,15.33c0.21,0,0.43,0,0.64,0c0,0.29,0,0.57,0,0.86c-0.22,0-0.44,0-0.65,0
		C3.25,15.91,3.23,15.62,3.27,15.33z"/>
	<path class="st8" d="M24.56,15.34c0.22,0,0.44,0,0.66,0c0,0.29,0,0.57,0,0.86c-0.22,0-0.44,0-0.66,0
		C24.56,15.91,24.56,15.62,24.56,15.34z"/>
	<path class="st9" d="M3.26,16.19c0.22,0,0.44,0,0.65,0c0,0.29,0,0.57,0,0.86c-0.22,0-0.43,0-0.65,0
		C3.26,16.76,3.26,16.48,3.26,16.19z"/>
	<path class="st9" d="M24.56,16.19c0.22,0,0.44,0,0.66,0c0,0.29,0,0.57,0,0.86c-0.22,0-0.44,0-0.66,0
		C24.56,16.76,24.56,16.48,24.56,16.19z"/>
	<path class="st10" d="M24.56,17.05c0.22,0,0.44,0,0.66,0c0,0.27,0,0.54,0,0.81c-0.22,0-0.44,0-0.66,0
		C24.56,17.59,24.56,17.32,24.56,17.05z"/>
	<path class="st11" d="M3.91,18.69c-0.22,0-0.43,0-0.65,0c0-0.28,0-0.55-0.01-0.83c0.22,0,0.43,0,0.65,0
		C3.91,18.14,3.91,18.42,3.91,18.69z"/>
	<path class="st11" d="M24.56,17.87c0.22,0,0.44,0,0.66,0c0,0.28,0,0.55,0,0.83c-0.22,0-0.44,0-0.66,0
		C24.56,18.42,24.56,18.14,24.56,17.87z"/>
	<path class="st10" d="M3.91,17.86c-0.22,0-0.43,0-0.65,0c0-0.27,0-0.54,0-0.82c0.22,0,0.43,0,0.65,0
		C3.91,17.32,3.91,17.59,3.91,17.86z"/>
	<path class="st9" d="M26.99,16.19c0,0.18,0,0.35,0.01,0.53c0,0,0,0,0,0c-0.16,0-0.32-0.02-0.47,0c-0.21,0.02-0.29-0.06-0.26-0.26
		c0.01-0.08,0.01-0.17,0.01-0.26C26.52,16.19,26.75,16.19,26.99,16.19z"/>
	<path class="st10" d="M27,17.53c0,0.11,0,0.22-0.01,0.33c-0.24,0-0.47,0-0.71,0c-0.02-0.33-0.02-0.33,0.31-0.33
		C26.73,17.53,26.86,17.53,27,17.53C27,17.54,27,17.53,27,17.53z"/>
	<path class="st11" d="M26.28,17.87c0.24,0,0.47,0,0.71,0c0.05,0.2-0.03,0.28-0.23,0.25c-0.08-0.01-0.16-0.01-0.24,0
		C26.32,18.14,26.23,18.07,26.28,17.87z"/>
	<path class="st8" d="M26.99,16.19c-0.24,0-0.47,0-0.71,0c0.23-0.11,0.48-0.02,0.72-0.05c0,0,0,0,0,0
		C27,16.16,26.99,16.18,26.99,16.19z"/>
	<path class="st12" d="M3.91,17.86c0-0.27,0-0.54,0-0.81c0-0.29,0-0.57,0-0.86c0-0.29,0-0.57,0-0.86c0.01-0.06,0.04-0.09,0.11-0.09
		c0.3,0,0.6,0,0.9,0c0.09,0,0.13,0.05,0.17,0.1c0.16,0.29,0.33,0.58,0.53,0.86c0.07,0.13,0.14,0.26,0.22,0.39
		c0.05,0.09,0.1,0.08,0.15-0.01c0.07-0.13,0.15-0.26,0.22-0.39c0.2-0.27,0.37-0.56,0.53-0.86c0.04-0.03,0.06-0.09,0.13-0.09
		c0.33,0,0.65,0,0.98,0c0.06,0,0.08,0.04,0.09,0.09c0,0.29,0,0.57,0,0.86c0,0.28,0,0.57,0,0.85c0,0.27,0,0.55,0,0.82
		c0,0.28,0,0.55,0,0.83c-0.02,0.32-0.02,0.32-0.34,0.32c-0.13,0-0.26,0-0.38,0c-0.32,0-0.32,0-0.34-0.32c0-0.28,0-0.55,0-0.83
		c0-0.22,0.01-0.44,0.01-0.67c0-0.05,0.03-0.12-0.05-0.14c-0.07-0.02-0.1,0.03-0.13,0.08c-0.15,0.24-0.3,0.48-0.46,0.72
		c-0.14,0.12-0.18,0.4-0.32,0.41c-0.18,0-0.22-0.28-0.35-0.41c-0.19-0.3-0.37-0.61-0.63-0.92c-0.01,0.34-0.03,0.63,0.01,0.92
		c-0.03,0.28-0.03,0.55,0,0.83c-0.04,0.32-0.04,0.32-0.38,0.32c-0.1,0-0.21,0-0.31,0c-0.34,0-0.34,0-0.36-0.32
		C3.91,18.42,3.91,18.14,3.91,17.86z"/>
	<path class="st12" d="M24.56,17.87c0,0.28,0,0.55,0,0.83c-0.02,0.32-0.02,0.32-0.34,0.32c-0.13,0-0.26,0-0.38,0
		c-0.32,0-0.32,0-0.34-0.32c0-0.28,0-0.55,0-0.83c0-0.22,0.01-0.44,0.01-0.67c0-0.05,0.03-0.12-0.05-0.14
		c-0.07-0.02-0.1,0.03-0.13,0.08c-0.15,0.24-0.3,0.48-0.46,0.72c-0.14,0.12-0.18,0.4-0.32,0.41c-0.18,0-0.22-0.28-0.35-0.41
		c-0.19-0.3-0.37-0.61-0.63-0.92c-0.01,0.34-0.03,0.63,0.01,0.92c-0.03,0.28-0.03,0.55,0,0.83c-0.04,0.32-0.04,0.32-0.37,0.32
		c-0.11,0-0.22,0-0.33,0c-0.32,0-0.32,0-0.34-0.32c0-0.28,0-0.55,0-0.83c0-0.27,0-0.54,0-0.81c0-0.29,0-0.57,0-0.86
		c0-0.29,0-0.57,0-0.86c0.01-0.06,0.04-0.09,0.11-0.09c0.3,0,0.6,0,0.9,0c0.09,0,0.13,0.05,0.17,0.1c0.16,0.29,0.33,0.58,0.53,0.86
		c0.07,0.13,0.14,0.26,0.22,0.39c0.05,0.09,0.1,0.08,0.15-0.01c0.07-0.13,0.15-0.26,0.22-0.39c0.2-0.27,0.37-0.56,0.53-0.86
		c0.04-0.03,0.06-0.09,0.13-0.09c0.33,0,0.65,0,0.98,0c0.06,0,0.08,0.04,0.09,0.09c0,0.29,0,0.57,0,0.86c0,0.28,0,0.57,0,0.85
		C24.56,17.32,24.56,17.59,24.56,17.87z"/>
	<path class="st12" d="M11.8,18.68c-0.29,0.17-0.59,0.33-0.93,0.39c-0.61,0.1-1.16-0.05-1.67-0.39c-0.25-0.23-0.47-0.5-0.6-0.82
		c-0.08-0.26-0.13-0.54-0.14-0.81c0.03-0.3,0.11-0.58,0.24-0.85c0.23-0.37,0.54-0.65,0.92-0.85c0.6-0.23,1.19-0.22,1.79,0
		c0.38,0.2,0.69,0.49,0.92,0.85c0.1,0.28,0.21,0.55,0.22,0.85c0,0.28-0.05,0.55-0.13,0.81C12.27,18.18,12.05,18.44,11.8,18.68z
		 M10.19,16.19c-0.37,0.12-0.6,0.44-0.62,0.86c-0.04,0.32,0.06,0.6,0.29,0.82c0.39,0.37,0.92,0.38,1.3,0
		c0.25-0.23,0.34-0.5,0.28-0.83c-0.02-0.41-0.21-0.7-0.61-0.85C10.62,16.09,10.41,16.08,10.19,16.19z"/>
	<path class="st12" d="M20.01,18.69c-0.02,0.32-0.02,0.32-0.34,0.32c-0.79,0-1.59,0-2.38,0c-0.34,0-0.34,0-0.36-0.32
		c0-0.28,0-0.55,0-0.83c0-0.27,0-0.54,0-0.82c0-0.29,0-0.57,0-0.86c0-0.29,0-0.57,0-0.86c0.02-0.12,0.11-0.09,0.18-0.09
		c0.89,0,1.78,0,2.67,0c0.08,0,0.16-0.02,0.19,0.09c0,0.18-0.03,0.37-0.01,0.55c0.02,0.23-0.07,0.28-0.28,0.27
		c-0.49-0.01-0.99-0.01-1.48,0c-0.07,0-0.16-0.04-0.22,0.05c0,0.09,0,0.18-0.01,0.26c-0.03,0.21,0.05,0.27,0.26,0.26
		c0.43-0.02,0.85,0,1.28-0.01c0.17,0,0.28,0.02,0.25,0.23c-0.01,0.04,0.01,0.08,0.02,0.12c0,0.08-0.02,0.16-0.01,0.24
		c0.03,0.2-0.05,0.26-0.25,0.25c-0.41-0.02-0.82,0-1.24,0c-0.33,0-0.33,0-0.31,0.33c-0.05,0.2,0.03,0.26,0.24,0.25
		c0.42-0.01,0.84,0,1.26,0c0.5,0,0.5,0,0.51,0.51C20.01,18.65,20.01,18.67,20.01,18.69z"/>
	<path class="st4" d="M15.18,18.69c-0.07,0.34-0.3,0.38-0.61,0.37c-0.31-0.01-0.59,0-0.69-0.37c-0.06-0.3-0.2-0.56-0.32-0.84
		c-0.09-0.28-0.19-0.56-0.34-0.82c-0.09-0.29-0.2-0.58-0.34-0.85c-0.09-0.3-0.21-0.58-0.34-0.86c0-0.05,0.02-0.09,0.08-0.09
		c0.33,0,0.66,0,0.99,0c0.07,0,0.1,0.05,0.12,0.09c0.09,0.29,0.19,0.58,0.32,0.86c0.09,0.29,0.17,0.58,0.31,0.85
		c0.05,0.17,0.11,0.34,0.16,0.51c0.02,0,0.04,0,0.05,0c0.05-0.17,0.11-0.34,0.16-0.51c0.12-0.27,0.23-0.56,0.3-0.85
		c0.13-0.28,0.23-0.57,0.32-0.86c0.01-0.01,0.01-0.04,0.03-0.04c0.38-0.09,0.75-0.08,1.13-0.01c0.01,0,0.01,0.03,0.01,0.04
		c-0.11,0.29-0.23,0.57-0.34,0.86c-0.11,0.28-0.23,0.57-0.34,0.85c-0.11,0.27-0.22,0.54-0.33,0.82
		C15.4,18.14,15.29,18.42,15.18,18.69z"/>
	<path class="st8" d="M14.05,16.2c-0.13-0.28-0.22-0.57-0.32-0.86c0.54,0,1.08,0,1.62,0c-0.09,0.29-0.19,0.58-0.32,0.86
		C14.71,16.2,14.38,16.2,14.05,16.2z"/>
	<path class="st8" d="M6.75,15.34c-0.16,0.3-0.33,0.58-0.53,0.86c-0.2,0-0.39,0-0.59,0c-0.2-0.27-0.37-0.56-0.53-0.86
		C5.65,15.34,6.2,15.34,6.75,15.34z"/>
	<path class="st8" d="M23.36,15.34c-0.16,0.3-0.33,0.58-0.53,0.86c-0.2,0-0.39,0-0.59,0c-0.2-0.27-0.37-0.56-0.53-0.86
		C22.26,15.34,22.81,15.34,23.36,15.34z"/>
	<path class="st8" d="M9.63,15.34c-0.39,0.2-0.7,0.48-0.92,0.85c-0.25,0-0.51,0-0.76,0c0-0.29,0-0.57,0-0.86
		C8.5,15.34,9.07,15.34,9.63,15.34z"/>
	<path class="st8" d="M12.54,15.34c0.13,0.28,0.25,0.56,0.34,0.86c-0.18,0-0.36,0.01-0.55,0.01c-0.23-0.37-0.54-0.65-0.92-0.85
		C11.79,15.34,12.16,15.34,12.54,15.34z"/>
	<path class="st8" d="M18,16.19c0.06-0.09,0.14-0.05,0.22-0.05c0.49,0,0.99-0.01,1.48,0c0.21,0.01,0.3-0.04,0.28-0.27
		c-0.02-0.18,0.01-0.36,0.01-0.55c0.18,0,0.36,0,0.54,0c0,0.29,0,0.57,0,0.86C19.68,16.19,18.84,16.19,18,16.19z"/>
	<path class="st8" d="M16.19,16.19c0.11-0.29,0.23-0.57,0.34-0.86c0.14,0,0.27,0,0.41,0c0,0.29,0,0.57,0,0.86
		C16.68,16.19,16.43,16.19,16.19,16.19z"/>
	<path class="st11" d="M23.49,17.86c0,0.28,0,0.55,0,0.83c-0.64,0-1.28,0-1.92,0c-0.03-0.28-0.03-0.55,0-0.83c0.21,0,0.41,0,0.62,0
		c0.13,0.13,0.17,0.41,0.35,0.41c0.15,0,0.19-0.29,0.32-0.41C23.07,17.86,23.28,17.86,23.49,17.86z"/>
	<path class="st11" d="M4.96,18.69c-0.03-0.28-0.03-0.55,0-0.83c0.21,0,0.41,0,0.62,0c0.13,0.13,0.17,0.41,0.35,0.41
		c0.15,0,0.19-0.29,0.32-0.41c0.21,0,0.42,0,0.63,0c0,0.28,0,0.55,0,0.83C6.24,18.69,5.6,18.69,4.96,18.69z"/>
	<path class="st11" d="M15.18,18.69c0.11-0.28,0.22-0.55,0.33-0.83c0.47,0,0.95,0,1.42,0c0,0.28,0,0.55,0,0.83
		C16.35,18.69,15.76,18.69,15.18,18.69z"/>
	<path class="st11" d="M13.55,17.86c0.12,0.27,0.26,0.54,0.32,0.84c-0.69-0.01-1.38-0.01-2.07-0.02c0.25-0.24,0.47-0.5,0.61-0.82
		C12.8,17.86,13.17,17.86,13.55,17.86z"/>
	<path class="st11" d="M20.01,18.69c0-0.02-0.01-0.05-0.01-0.07c-0.01-0.51-0.01-0.51-0.51-0.51c-0.42,0-0.84-0.01-1.26,0
		c-0.2,0.01-0.28-0.05-0.24-0.25c0.84,0,1.68,0,2.53,0c0,0.28,0,0.55,0,0.83C20.35,18.69,20.18,18.69,20.01,18.69z"/>
	<path class="st11" d="M8.6,17.86c0.14,0.32,0.35,0.58,0.6,0.82c-0.42,0-0.84,0.01-1.26,0.01c0-0.28,0-0.55,0-0.83
		C8.16,17.86,8.38,17.86,8.6,17.86z"/>
	<path class="st9" d="M7.94,16.19c0.25,0,0.51,0,0.76,0c-0.13,0.27-0.2,0.56-0.24,0.85c-0.17,0-0.35,0-0.52,0
		C7.94,16.76,7.94,16.48,7.94,16.19z"/>
	<path class="st10" d="M7.94,17.05c0.17,0,0.35,0,0.52,0c0.01,0.28,0.05,0.55,0.14,0.81c-0.22,0-0.44,0-0.66,0
		C7.94,17.59,7.94,17.32,7.94,17.05z"/>
	<path class="st10" d="M5.58,17.86c-0.21,0-0.41,0-0.62,0c-0.03-0.29-0.02-0.58-0.01-0.92C5.21,17.25,5.39,17.56,5.58,17.86z"/>
	<path class="st10" d="M6.88,17.86c-0.21,0-0.42,0-0.63,0c0.15-0.24,0.3-0.48,0.46-0.72c0.03-0.05,0.06-0.1,0.13-0.08
		c0.08,0.02,0.05,0.09,0.05,0.14C6.88,17.42,6.88,17.64,6.88,17.86z"/>
	<path class="st9" d="M5.63,16.2c0.2,0,0.39,0,0.59,0C6.14,16.32,6.07,16.45,6,16.58c-0.05,0.09-0.09,0.1-0.15,0.01
		C5.77,16.46,5.7,16.33,5.63,16.2z"/>
	<path class="st9" d="M18,16.19c0.84,0,1.68,0,2.53,0c0,0.29,0,0.57,0,0.86c-0.24,0-0.48,0-0.73,0c-0.01-0.04-0.02-0.08-0.02-0.12
		c0.03-0.2-0.08-0.23-0.25-0.23c-0.43,0.01-0.86-0.01-1.28,0.01c-0.21,0.01-0.29-0.05-0.26-0.26C18,16.37,17.99,16.28,18,16.19z"/>
	<path class="st10" d="M19.8,17.05c0.24,0,0.48,0,0.73,0c0,0.27,0,0.54,0,0.81c-0.84,0-1.68,0-2.53,0
		c-0.02-0.33-0.02-0.33,0.31-0.33c0.41,0,0.82-0.01,1.24,0c0.2,0.01,0.27-0.05,0.25-0.25C19.78,17.21,19.79,17.13,19.8,17.05z"/>
	<path class="st10" d="M22.19,17.86c-0.21,0-0.41,0-0.62,0c-0.03-0.29-0.02-0.58-0.01-0.92C21.83,17.25,22.01,17.56,22.19,17.86z"/>
	<path class="st10" d="M23.49,17.86c-0.21,0-0.42,0-0.63,0c0.15-0.24,0.3-0.48,0.46-0.72c0.03-0.05,0.06-0.1,0.13-0.08
		c0.08,0.02,0.05,0.09,0.05,0.14C23.5,17.42,23.5,17.64,23.49,17.86z"/>
	<path class="st9" d="M22.25,16.2c0.2,0,0.39,0,0.59,0c-0.07,0.13-0.15,0.26-0.22,0.39c-0.05,0.09-0.09,0.1-0.15,0.01
		C22.39,16.46,22.32,16.33,22.25,16.2z"/>
	<path class="st10" d="M9.87,17.87c-0.23-0.23-0.33-0.5-0.29-0.82c0.62,0,1.25,0,1.87-0.01c0.05,0.33-0.04,0.61-0.28,0.83
		C10.73,17.87,10.3,17.87,9.87,17.87z"/>
	<path class="st9" d="M11.45,17.04c-0.62,0-1.25,0-1.87,0.01c0.02-0.42,0.24-0.73,0.62-0.86c0.22,0,0.43,0,0.65,0
		C11.24,16.34,11.43,16.63,11.45,17.04z"/>
	<path class="st10" d="M13.55,17.86c-0.38,0-0.76,0-1.14,0c0.09-0.26,0.13-0.53,0.13-0.81c0.22,0,0.45-0.01,0.67-0.01
		C13.36,17.3,13.46,17.58,13.55,17.86z"/>
	<path class="st9" d="M13.22,17.04c-0.22,0-0.45,0.01-0.67,0.01c-0.01-0.3-0.11-0.57-0.22-0.85c0.18,0,0.36-0.01,0.55-0.01
		C13.02,16.46,13.13,16.75,13.22,17.04z"/>
	<path class="st11" d="M9.87,17.87c0.43,0,0.86,0,1.3,0C10.78,18.25,10.25,18.24,9.87,17.87z"/>
	<path class="st8" d="M10.84,16.19c-0.22,0-0.43,0-0.65,0C10.41,16.08,10.62,16.09,10.84,16.19z"/>
	<path class="st10" d="M16.93,17.86c-0.47,0-0.95,0-1.42,0c0.11-0.27,0.22-0.54,0.33-0.82c0.36,0,0.72,0,1.09,0
		C16.93,17.32,16.93,17.59,16.93,17.86z"/>
	<path class="st9" d="M16.93,17.05c-0.36,0-0.72,0-1.09,0c0.11-0.28,0.23-0.57,0.34-0.85c0.25,0,0.5,0,0.75,0
		C16.93,16.48,16.93,16.76,16.93,17.05z"/>
	<path class="st9" d="M14.05,16.2c0.33,0,0.66,0,0.99,0c-0.08,0.29-0.18,0.57-0.3,0.85c-0.13,0-0.25,0-0.38,0
		C14.23,16.78,14.14,16.49,14.05,16.2z"/>
	<path class="st10" d="M14.36,17.05c0.13,0,0.25,0,0.38,0c-0.05,0.17-0.11,0.34-0.16,0.51c-0.02,0-0.04,0-0.05,0
		C14.47,17.39,14.41,17.22,14.36,17.05z"/>
</g>
</svg>
