<?xml version="1.0" encoding="utf-8"?>
<!-- Generator: Adobe Illustrator 24.1.2, SVG Export Plug-In . SVG Version: 6.00 Build 0)  -->
<svg version="1.1" id="Layer_4" xmlns="http://www.w3.org/2000/svg" xmlns:xlink="http://www.w3.org/1999/xlink" x="0px" y="0px"
	 viewBox="0 0 40 40" style="enable-background:new 0 0 40 40;" xml:space="preserve">
<style type="text/css">
	.st0{fill:url(#SVGID_1_);}
	.st1{fill:url(#SVGID_2_);}
	.st2{fill:url(#SVGID_3_);}
	.st3{fill:none;stroke:#FFFFFF;stroke-width:0.2;stroke-linecap:round;stroke-miterlimit:10;}
</style>
<g>
	<linearGradient id="SVGID_1_" gradientUnits="userSpaceOnUse" x1="6.8062" y1="27.8292" x2="35.9173" y2="28.3292">
		<stop  offset="0.1223" style="stop-color:#E74545"/>
		<stop  offset="1" style="stop-color:#75247F"/>
	</linearGradient>
	<path class="st0" d="M3.9,26.8H3.6c-0.6,0-1,0.4-1,1s0.4,1,1,1h0.3c0.6,0,1-0.4,1-1S4.5,26.8,3.9,26.8z"/>
	<linearGradient id="SVGID_2_" gradientUnits="userSpaceOnUse" x1="7.0115" y1="15.8763" x2="36.1226" y2="16.3763">
		<stop  offset="0.1223" style="stop-color:#E74545"/>
		<stop  offset="1" style="stop-color:#75247F"/>
	</linearGradient>
	<path class="st1" d="M5.9,16.9h0.3c0.6,0,1-0.4,1-1s-0.4-1-1-1H5.9c-0.6,0-1,0.4-1,1S5.4,16.9,5.9,16.9z"/>
	<linearGradient id="SVGID_3_" gradientUnits="userSpaceOnUse" x1="6.947" y1="19.6317" x2="36.0581" y2="20.1317">
		<stop  offset="0.1223" style="stop-color:#E74545"/>
		<stop  offset="1" style="stop-color:#75247F"/>
	</linearGradient>
	<path class="st2" d="M36,12.3C35,11.4,33.8,11,32.3,11c-2.3,0-4,1-5.2,3.1c-0.8-2.1-2.2-3.2-4.4-3.2h-8.2h-2.7H8c-0.5,0-1,0.4-1,1
		c0,0.5,0.4,1,1,1h3.8v0h0.1c0.5,0,1,0.4,1,1s-0.4,1-1,1h-0.5H9.1c-0.5,0-1,0.4-1,1s0.4,1,1,1h1v0c0.4,0.1,0.7,0.5,0.7,0.9
		c0,0.5-0.3,0.8-0.7,0.9v0H9.8H7.3c-0.5,0-1,0.4-1,1s0.4,1,1,1h3.1h0.1c0.5,0,1,0.4,1,1c0,0.5-0.4,1-1,1h-0.4H5.3c-0.5,0-1,0.4-1,1
		c0,0.5,0.4,1,1,1h3.3H9c0.5,0,1,0.4,1,1c0,0.5-0.4,1-1,1H8.6H6.5c-0.5,0-1,0.4-1,1c0,0.5,0.4,1,1,1h2.6l0,0h6.4l1.7-10.3
		c0.2-1.3,0.6-2.1,1-2.4c0.5-0.3,0.9-0.4,1.2-0.4c0.3,0,0.6,0.1,0.9,0.3c0.3,0.2,0.4,0.6,0.4,1.1c0,0.3-0.1,0.7-0.2,1.3l-1.7,10.3
		h6.4l1.7-9.9c0.2-1.2,0.5-2,0.9-2.4c0.4-0.4,0.8-0.6,1.4-0.6c0.9,0,1.4,0.5,1.4,1.5c0,0.3,0,0.7-0.1,1.2l-1.7,10.3h6.6l1.9-11.2
		c0.1-0.7,0.2-1.2,0.2-1.7C37.3,14.3,36.9,13.1,36,12.3z"/>
</g>
<path class="st3" d="M34.9,28.1c0,0,1.7-10.2,2-11.7c0.2-1.2-0.1-4.4-3.5-4.8"/>
<path class="st3" d="M24.7,28.1c0,0,1.3-8.2,1.6-9.6c0.3-1.3,0.5-2.7,2-3.4"/>
<path class="st3" d="M14.9,28.1c0,0,1.3-8.2,1.6-9.6c0.3-1.3,0.5-2.7,2-3.4"/>
<path class="st3" d="M23.3,11.6c2.2,0.1,3.3,2,3.4,3.5"/>
</svg>
