<?xml version="1.0" encoding="utf-8"?>
<!-- Generator: Adobe Illustrator 24.1.2, SVG Export Plug-In . SVG Version: 6.00 Build 0)  -->
<svg version="1.1" id="Layer_1" xmlns="http://www.w3.org/2000/svg" xmlns:xlink="http://www.w3.org/1999/xlink" x="0px" y="0px"
	 viewBox="0 0 40 40" style="enable-background:new 0 0 40 40;" xml:space="preserve">
<style type="text/css">
	.st0{fill:#D5425D;}
	.st1{fill:#764295;}
	.st2{fill:#E77D44;}
	.st3{fill:#E5BD44;}
	.st4{fill:#3B8E46;}
	.st5{fill:#4393E8;}
	.st6{fill:#DDDDDC;}
	.st7{fill:#313131;}
</style>
<g id="Color">
	<path class="st0" d="M3.3,15.3c0.1-0.5,0.5-0.8,1-0.8c7.5,0,15,0,22.5,0c0.2,0,0.3,0,0.2,0.2c0,0.2,0,0.3,0,0.5l0,0
		c-0.5,0-1,0-1.6,0c-0.1,0-0.2,0-0.2,0.1c-0.2,0-0.4,0-0.7,0c0-0.1,0-0.1-0.1-0.1c-0.3,0-0.6,0-1,0c-0.1,0-0.1,0.1-0.1,0.1
		c-0.5,0-1.1,0-1.6,0c0-0.1-0.1-0.1-0.2-0.1c-0.3,0-0.6,0-0.9,0c-0.1,0-0.1,0-0.1,0.1c-0.2,0-0.4,0-0.5,0c0-0.1-0.1-0.1-0.2-0.1
		c-0.9,0-1.8,0-2.7,0c-0.1,0-0.2,0-0.2,0.1c-0.1,0-0.3,0-0.4,0c0,0,0,0,0,0c-0.4-0.1-0.8-0.1-1.1,0c0,0,0,0,0,0c-0.5,0-1.1,0-1.6,0
		c0-0.1-0.1-0.1-0.1-0.1c-0.3,0-0.7,0-1,0c-0.1,0-0.1,0-0.1,0.1c-0.4,0-0.8,0-1.1,0c-0.6-0.2-1.2-0.2-1.8,0c-0.6,0-1.1,0-1.7,0
		c0-0.1,0-0.1-0.1-0.1c-0.3,0-0.7,0-1,0c-0.1,0-0.1,0.1-0.1,0.1c-0.6,0-1.1,0-1.7,0c-0.1-0.1-0.1-0.1-0.2-0.1c-0.3,0-0.6,0-0.9,0
		c-0.1,0-0.1,0-0.1,0.1C3.7,15.3,3.5,15.3,3.3,15.3z"/>
	<path class="st1" d="M25.2,18.7c0,0.3,0,0.3,0.4,0.3c0.5,0,1,0,1.4,0l0,0c0,0.5,0,0.5-0.5,0.5c-7.4,0-14.8,0-22.1,0
		c-0.6,0-1-0.3-1.1-0.9c0.2,0,0.4,0,0.7,0c0,0.3,0,0.3,0.4,0.3c0.1,0,0.2,0,0.3,0c0.3,0,0.3,0,0.4-0.3c0.6,0,1.3,0,1.9,0
		c0,0.3,0,0.3,0.3,0.3c0.1,0,0.3,0,0.4,0c0.3,0,0.3,0,0.3-0.3c0.4,0,0.8,0,1.3,0c0.5,0.3,1.1,0.5,1.7,0.4c0.3-0.1,0.6-0.2,0.9-0.4
		c0.7,0,1.4,0,2.1,0c0.1,0.4,0.4,0.4,0.7,0.4c0.3,0,0.5,0,0.6-0.4c0.6,0,1.2,0,1.8,0c0,0.3,0,0.3,0.4,0.3c0.8,0,1.6,0,2.4,0
		c0.3,0,0.3,0,0.3-0.3c0.2,0,0.3,0,0.5,0c0,0.3,0,0.3,0.3,0.3c0.1,0,0.2,0,0.3,0c0.3,0,0.3,0,0.4-0.3c0.6,0,1.3,0,1.9,0
		c0,0.3,0,0.3,0.3,0.3c0.1,0,0.3,0,0.4,0c0.3,0,0.3,0,0.3-0.3C24.8,18.7,25,18.7,25.2,18.7z"/>
	<path class="st2" d="M3.3,15.3c0.2,0,0.4,0,0.6,0c0,0.3,0,0.6,0,0.9c-0.2,0-0.4,0-0.7,0C3.3,15.9,3.2,15.6,3.3,15.3z"/>
	<path class="st2" d="M24.6,15.3c0.2,0,0.4,0,0.7,0c0,0.3,0,0.6,0,0.9c-0.2,0-0.4,0-0.7,0C24.6,15.9,24.6,15.6,24.6,15.3z"/>
	<path class="st3" d="M3.3,16.2c0.2,0,0.4,0,0.6,0c0,0.3,0,0.6,0,0.9c-0.2,0-0.4,0-0.7,0C3.3,16.8,3.3,16.5,3.3,16.2z"/>
	<path class="st3" d="M24.6,16.2c0.2,0,0.4,0,0.7,0c0,0.3,0,0.6,0,0.9c-0.2,0-0.4,0-0.7,0C24.6,16.8,24.6,16.5,24.6,16.2z"/>
	<path class="st4" d="M24.6,17c0.2,0,0.4,0,0.7,0c0,0.3,0,0.5,0,0.8c-0.2,0-0.4,0-0.7,0C24.6,17.6,24.6,17.3,24.6,17z"/>
	<path class="st5" d="M3.9,18.7c-0.2,0-0.4,0-0.6,0c0-0.3,0-0.5,0-0.8c0.2,0,0.4,0,0.6,0C3.9,18.1,3.9,18.4,3.9,18.7z"/>
	<path class="st5" d="M24.6,17.9c0.2,0,0.4,0,0.7,0c0,0.3,0,0.5,0,0.8c-0.2,0-0.4,0-0.7,0C24.6,18.4,24.6,18.1,24.6,17.9z"/>
	<path class="st4" d="M3.9,17.9c-0.2,0-0.4,0-0.6,0c0-0.3,0-0.5,0-0.8c0.2,0,0.4,0,0.7,0C3.9,17.3,3.9,17.6,3.9,17.9z"/>
	<path class="st3" d="M27,16.2c0,0.2,0,0.4,0,0.5l0,0c-0.2,0-0.3,0-0.5,0c-0.2,0-0.3-0.1-0.3-0.3c0-0.1,0-0.2,0-0.3
		C26.5,16.2,26.8,16.2,27,16.2z"/>
	<path class="st4" d="M27,17.5c0,0.1,0,0.2,0,0.3c-0.2,0-0.5,0-0.7,0c0-0.3,0-0.3,0.3-0.3C26.7,17.5,26.9,17.5,27,17.5
		C27,17.5,27,17.5,27,17.5z"/>
	<path class="st5" d="M26.3,17.9c0.2,0,0.5,0,0.7,0c0,0.2,0,0.3-0.2,0.3c-0.1,0-0.2,0-0.2,0C26.3,18.1,26.2,18.1,26.3,17.9z"/>
	<path class="st2" d="M27,16.2c-0.2,0-0.5,0-0.7,0C26.5,16.1,26.8,16.2,27,16.2L27,16.2C27,16.2,27,16.2,27,16.2z"/>
	<path class="st2" d="M14.1,16.2c-0.1-0.3-0.2-0.6-0.3-0.9c0.5,0,1.1,0,1.6,0c-0.1,0.3-0.2,0.6-0.3,0.9
		C14.7,16.2,14.4,16.2,14.1,16.2z"/>
	<path class="st2" d="M6.8,15.3c-0.2,0.3-0.3,0.6-0.5,0.9c-0.2,0-0.4,0-0.6,0c-0.2-0.3-0.4-0.6-0.5-0.9C5.7,15.3,6.2,15.3,6.8,15.3z
		"/>
	<path class="st2" d="M23.4,15.3c-0.2,0.3-0.3,0.6-0.5,0.9c-0.2,0-0.4,0-0.6,0c-0.2-0.3-0.4-0.6-0.5-0.9
		C22.3,15.3,22.8,15.3,23.4,15.3z"/>
	<path class="st2" d="M9.6,15.3c-0.4,0.2-0.7,0.5-0.9,0.9c-0.3,0-0.5,0-0.8,0c0-0.3,0-0.6,0-0.9C8.5,15.3,9.1,15.3,9.6,15.3z"/>
	<path class="st2" d="M12.5,15.3c0.1,0.3,0.3,0.6,0.3,0.9c-0.2,0-0.4,0-0.6,0c-0.2-0.4-0.5-0.6-0.9-0.9
		C11.8,15.3,12.2,15.3,12.5,15.3z"/>
	<path class="st2" d="M18,16.2c0.1-0.1,0.1,0,0.2,0c0.5,0,1,0,1.5,0c0.2,0,0.3,0,0.3-0.3c0-0.2,0-0.4,0-0.6c0.2,0,0.4,0,0.5,0
		c0,0.3,0,0.6,0,0.9C19.7,16.2,18.8,16.2,18,16.2z"/>
	<path class="st2" d="M16.2,16.2c0.1-0.3,0.2-0.6,0.3-0.9c0.1,0,0.3,0,0.4,0c0,0.3,0,0.6,0,0.9C16.7,16.2,16.4,16.2,16.2,16.2z"/>
	<path class="st5" d="M23.5,17.9c0,0.3,0,0.5,0,0.8c-0.6,0-1.3,0-1.9,0c0-0.3,0-0.5,0-0.8c0.2,0,0.4,0,0.6,0
		c0.1,0.1,0.2,0.4,0.4,0.4c0.1,0,0.2-0.3,0.3-0.4C23.1,17.9,23.3,17.9,23.5,17.9z"/>
	<path class="st5" d="M5,18.7c0-0.3,0-0.5,0-0.8c0.2,0,0.4,0,0.6,0c0.1,0.1,0.2,0.4,0.3,0.4c0.2,0,0.2-0.3,0.3-0.4
		c0.2,0,0.4,0,0.6,0c0,0.3,0,0.5,0,0.8C6.2,18.7,5.6,18.7,5,18.7z"/>
	<path class="st5" d="M15.2,18.7c0.1-0.3,0.2-0.5,0.3-0.8c0.5,0,1,0,1.4,0c0,0.3,0,0.5,0,0.8C16.4,18.7,15.8,18.7,15.2,18.7z"/>
	<path class="st5" d="M13.6,17.9c0.1,0.3,0.3,0.5,0.3,0.8c-0.7,0-1.4,0-2.1,0c0.3-0.2,0.5-0.5,0.6-0.8
		C12.8,17.9,13.2,17.9,13.6,17.9z"/>
	<path class="st5" d="M20,18.7C20,18.7,20,18.6,20,18.7c0-0.6,0-0.6-0.5-0.6c-0.4,0-0.8,0-1.3,0c-0.2,0-0.3,0-0.2-0.3
		c0.8,0,1.7,0,2.5,0c0,0.3,0,0.5,0,0.8C20.4,18.7,20.2,18.7,20,18.7z"/>
	<path class="st5" d="M8.6,17.9c0.1,0.3,0.4,0.6,0.6,0.8c-0.4,0-0.8,0-1.3,0c0-0.3,0-0.5,0-0.8C8.2,17.9,8.4,17.9,8.6,17.9z"/>
	<path class="st3" d="M7.9,16.2c0.3,0,0.5,0,0.8,0c-0.1,0.3-0.2,0.6-0.2,0.9c-0.2,0-0.4,0-0.5,0C7.9,16.8,7.9,16.5,7.9,16.2z"/>
	<path class="st4" d="M7.9,17c0.2,0,0.3,0,0.5,0c0,0.3,0.1,0.5,0.1,0.8c-0.2,0-0.4,0-0.7,0C7.9,17.6,7.9,17.3,7.9,17z"/>
	<path class="st4" d="M5.6,17.9c-0.2,0-0.4,0-0.6,0c0-0.3,0-0.6,0-0.9C5.2,17.3,5.4,17.6,5.6,17.9z"/>
	<path class="st4" d="M6.9,17.9c-0.2,0-0.4,0-0.6,0c0.2-0.2,0.3-0.5,0.5-0.7c0,0,0.1-0.1,0.1-0.1c0.1,0,0.1,0.1,0.1,0.1
		C6.9,17.4,6.9,17.6,6.9,17.9z"/>
	<path class="st3" d="M5.6,16.2c0.2,0,0.4,0,0.6,0c-0.1,0.1-0.2,0.3-0.2,0.4c-0.1,0.1-0.1,0.1-0.2,0C5.8,16.5,5.7,16.3,5.6,16.2z"/>
	<path class="st3" d="M18,16.2c0.8,0,1.7,0,2.5,0c0,0.3,0,0.6,0,0.9c-0.2,0-0.5,0-0.7,0c0,0,0-0.1,0-0.1c0-0.2-0.1-0.2-0.3-0.2
		c-0.4,0-0.9,0-1.3,0c-0.2,0-0.3,0-0.3-0.3C18,16.4,18,16.3,18,16.2z"/>
	<path class="st4" d="M19.8,17c0.2,0,0.5,0,0.7,0c0,0.3,0,0.5,0,0.8c-0.8,0-1.7,0-2.5,0c0-0.3,0-0.3,0.3-0.3c0.4,0,0.8,0,1.2,0
		c0.2,0,0.3,0,0.3-0.3C19.8,17.2,19.8,17.1,19.8,17z"/>
	<path class="st4" d="M22.2,17.9c-0.2,0-0.4,0-0.6,0c0-0.3,0-0.6,0-0.9C21.8,17.3,22,17.6,22.2,17.9z"/>
	<path class="st4" d="M23.5,17.9c-0.2,0-0.4,0-0.6,0c0.1-0.2,0.3-0.5,0.5-0.7c0,0,0.1-0.1,0.1-0.1c0.1,0,0,0.1,0,0.1
		C23.5,17.4,23.5,17.6,23.5,17.9z"/>
	<path class="st3" d="M22.3,16.2c0.2,0,0.4,0,0.6,0c-0.1,0.1-0.1,0.3-0.2,0.4c0,0.1-0.1,0.1-0.1,0C22.4,16.5,22.3,16.3,22.3,16.2z"
		/>
	<path class="st4" d="M9.9,17.9c-0.2-0.2-0.3-0.5-0.3-0.8c0.6,0,1.3,0,1.9,0c0.1,0.3,0,0.6-0.3,0.8C10.7,17.9,10.3,17.9,9.9,17.9z"
		/>
	<path class="st3" d="M11.4,17c-0.6,0-1.3,0-1.9,0c0-0.4,0.2-0.7,0.6-0.9c0.2,0,0.4,0,0.6,0C11.2,16.3,11.4,16.6,11.4,17z"/>
	<path class="st4" d="M13.6,17.9c-0.4,0-0.8,0-1.1,0c0.1-0.3,0.1-0.5,0.1-0.8c0.2,0,0.4,0,0.7,0C13.4,17.3,13.5,17.6,13.6,17.9z"/>
	<path class="st3" d="M13.2,17c-0.2,0-0.4,0-0.7,0c0-0.3-0.1-0.6-0.2-0.9c0.2,0,0.4,0,0.6,0C13,16.5,13.1,16.8,13.2,17z"/>
	<path class="st5" d="M9.9,17.9c0.4,0,0.9,0,1.3,0C10.8,18.3,10.3,18.2,9.9,17.9z"/>
	<path class="st2" d="M10.8,16.2c-0.2,0-0.4,0-0.6,0C10.4,16.1,10.6,16.1,10.8,16.2z"/>
	<path class="st4" d="M16.9,17.9c-0.5,0-0.9,0-1.4,0c0.1-0.3,0.2-0.5,0.3-0.8c0.4,0,0.7,0,1.1,0C16.9,17.3,16.9,17.6,16.9,17.9z"/>
	<path class="st3" d="M16.9,17c-0.4,0-0.7,0-1.1,0c0.1-0.3,0.2-0.6,0.3-0.9c0.3,0,0.5,0,0.8,0C16.9,16.5,16.9,16.8,16.9,17z"/>
	<path class="st3" d="M14.1,16.2c0.3,0,0.7,0,1,0c-0.1,0.3-0.2,0.6-0.3,0.9c-0.1,0-0.3,0-0.4,0C14.2,16.8,14.1,16.5,14.1,16.2z"/>
	<path class="st4" d="M14.4,17c0.1,0,0.3,0,0.4,0c-0.1,0.2-0.1,0.3-0.2,0.5c0,0,0,0-0.1,0C14.5,17.4,14.4,17.2,14.4,17z"/>
</g>
<g id="Dark">
	<path class="st6" d="M20,20.6c-5.4,0-10.7,0-16.1,0c-1.1,0-1.7-0.6-1.7-1.7c0-1.2,0-2.4,0-3.7c0-1,0.6-1.6,1.6-1.6
		c10.8,0,21.6,0,32.4,0c1,0,1.6,0.6,1.6,1.6c0,1.3,0,2.5,0,3.8c0,1-0.7,1.6-1.6,1.6C30.8,20.6,25.4,20.6,20,20.6z M20,20
		c5.4,0,10.8,0,16.2,0c0.7,0,1.1-0.4,1.1-1.1c0-1.2,0-2.4,0-3.6c0-0.7-0.4-1.1-1.1-1.1c-10.8,0-21.5,0-32.3,0
		c-0.7,0-1.1,0.4-1.1,1.1c0,1.2,0,2.4,0,3.6c0,0.7,0.4,1.1,1.1,1.1C9.3,20,14.6,20,20,20z"/>
	<path class="st6" d="M9.6,22c0-0.3,0.2-0.2,0.3-0.2c0.2,0,0.1,0.1,0.1,0.2c0,0.4,0,0.8,0,1.1c0,0.7-0.3,1-1,1c-0.2,0-0.4,0-0.6-0.1
		c-0.1,0-0.1-0.1-0.1-0.2c0.1-0.1,0.1-0.2,0.2-0.1c0.1,0.1,0.2,0.1,0.4,0.1c0.5,0.1,0.7-0.1,0.7-0.6c-0.5,0.3-0.9,0.3-1.2,0
		c-0.3-0.3-0.3-0.8,0-1.1C8.7,21.7,9.1,21.7,9.6,22z M9.1,23.1c0.3,0,0.5-0.2,0.5-0.5s-0.2-0.5-0.5-0.5c-0.3,0-0.5,0.2-0.5,0.5
		C8.6,22.9,8.8,23.1,9.1,23.1z"/>
	<path class="st6" d="M18.8,23.4c0,0.3-0.1,0.2-0.3,0.2c-0.2,0-0.1-0.1-0.1-0.2c0-0.7,0-1.4,0-2.1c0-0.2,0.1-0.2,0.2-0.2
		s0.2,0,0.2,0.2c0,0.2,0,0.5,0,0.7c0.5-0.4,0.9-0.3,1.2,0c0.3,0.4,0.3,1,0,1.3C19.7,23.7,19.2,23.7,18.8,23.4z M19.8,22.7
		c0-0.4-0.2-0.6-0.5-0.6c-0.3,0-0.5,0.3-0.5,0.6c0,0.3,0.2,0.6,0.5,0.6C19.6,23.3,19.8,23,19.8,22.7z"/>
	<path class="st6" d="M2.9,22c0.5-0.4,0.9-0.4,1.2,0c0.3,0.3,0.3,1,0,1.3c-0.3,0.4-0.7,0.4-1.2,0c0,0.2,0,0.4,0,0.6
		c0,0.2-0.1,0.1-0.2,0.1c-0.1,0-0.2,0.1-0.2-0.1c0-0.7,0-1.4,0-2c0-0.1,0.1-0.1,0.2-0.1C2.8,21.8,2.9,21.7,2.9,22z M3.9,22.7
		c0-0.4-0.2-0.6-0.5-0.6c-0.3,0-0.5,0.3-0.5,0.6s0.2,0.6,0.5,0.6C3.7,23.3,3.9,23,3.9,22.7z"/>
	<path class="st6" d="M21.7,23.4c-0.3,0.3-0.5,0.3-0.9,0.2c-0.2-0.1-0.4-0.3-0.3-0.5c0-0.3,0.1-0.4,0.4-0.5c0.2-0.1,0.4-0.1,0.7,0
		c0,0,0.1,0.1,0.2,0c0-0.1,0-0.1,0-0.2c-0.1-0.1-0.2-0.1-0.3-0.2c-0.1,0-0.3,0-0.4,0.1c-0.1,0.1-0.2,0-0.2-0.1
		c-0.1-0.1,0-0.2,0.1-0.3c0.1,0,0.3-0.1,0.4-0.1c0.6,0,0.9,0.2,0.9,0.9c0,0.3,0,0.5,0,0.7c0,0.1,0.1,0.2-0.1,0.2
		C21.9,23.5,21.7,23.7,21.7,23.4z M21.4,22.8c-0.3,0-0.5,0.1-0.5,0.3c0,0.2,0.1,0.3,0.4,0.3c0.3,0,0.5-0.2,0.5-0.4
		C21.7,22.7,21.5,22.8,21.4,22.8z"/>
	<path class="st6" d="M12.9,22.8c-0.2,0-0.3,0-0.5,0c-0.1,0-0.1,0-0.1,0.2c0.1,0.3,0.5,0.4,0.8,0.2c0.2-0.1,0.3,0,0.3,0.1
		c0.1,0.1-0.1,0.2-0.1,0.2c-0.3,0.3-0.9,0.2-1.2,0c-0.3-0.3-0.4-0.8-0.2-1.2c0.2-0.4,0.6-0.5,1.1-0.4c0.3,0.1,0.6,0.6,0.6,0.9
		c0,0.1-0.1,0.1-0.2,0.1C13.3,22.8,13.1,22.8,12.9,22.8z M13.2,22.5c-0.1-0.3-0.2-0.4-0.5-0.4c-0.2,0-0.4,0.2-0.4,0.4
		C12.6,22.5,12.9,22.5,13.2,22.5z"/>
	<path class="st6" d="M7.9,22.7c0,0.5-0.4,0.9-1,0.9c-0.5,0-0.9-0.4-0.9-0.9c0-0.5,0.4-0.9,1-0.9C7.5,21.8,7.9,22.2,7.9,22.7z
		 M7.5,22.7c0-0.3-0.2-0.6-0.5-0.6c-0.3,0-0.6,0.3-0.6,0.6s0.2,0.6,0.5,0.6C7.3,23.3,7.5,23,7.5,22.7z"/>
	<path class="st6" d="M24.6,21.7c0.2,0,0.3,0,0.5,0.1c0.1,0,0.2,0,0.1,0.2c-0.1,0.1-0.1,0.2-0.3,0.1c-0.1-0.1-0.2-0.1-0.4-0.1
		c-0.1,0-0.2,0-0.2,0.1c0,0.1,0,0.2,0.1,0.2c0.1,0,0.3,0.1,0.4,0.1c0.3,0.1,0.4,0.3,0.4,0.6c0,0.3-0.2,0.4-0.5,0.5
		c-0.3,0-0.5,0-0.8-0.2c-0.1-0.1-0.1-0.1,0-0.2c0.1-0.1,0.1-0.2,0.2-0.1c0.1,0.1,0.3,0.2,0.5,0.1c0.1,0,0.2,0,0.2-0.2
		s-0.1-0.2-0.2-0.2c-0.1,0-0.2-0.1-0.3-0.1c-0.3-0.1-0.5-0.3-0.5-0.6C24,21.9,24.2,21.7,24.6,21.7z"/>
	<path class="st6" d="M16.2,23.6c-0.1,0-0.4-0.1-0.6-0.2c-0.1-0.1-0.1-0.1,0-0.2c0.1-0.1,0.1-0.2,0.2-0.1c0.1,0.1,0.3,0.2,0.5,0.1
		c0.1,0,0.2,0,0.3-0.2c0-0.1-0.1-0.2-0.2-0.2c-0.1,0-0.3-0.1-0.4-0.1c-0.2-0.1-0.3-0.2-0.3-0.5s0.1-0.4,0.4-0.5
		c0.3-0.1,0.6,0,0.9,0.1c0.1,0,0.1,0.1,0,0.2c0,0.1,0,0.2-0.2,0.1c-0.1-0.1-0.3-0.1-0.4-0.1c-0.1,0-0.2,0-0.2,0.1
		c0,0.1,0.1,0.2,0.1,0.2c0.1,0,0.2,0.1,0.3,0.1c0.4,0.1,0.5,0.3,0.5,0.6C16.8,23.4,16.6,23.6,16.2,23.6z"/>
	<path class="st6" d="M14.5,23.6c-0.1,0-0.3-0.1-0.5-0.2c-0.1,0-0.2-0.1-0.1-0.2c0.1-0.1,0.1-0.2,0.3-0.1c0.1,0.1,0.3,0.1,0.5,0.1
		c0.1,0,0.2,0,0.2-0.2c0-0.1-0.1-0.2-0.1-0.2c-0.2-0.1-0.3-0.1-0.5-0.2c-0.2-0.1-0.3-0.2-0.3-0.5s0.1-0.4,0.4-0.5
		c0.3-0.1,0.6,0,0.8,0.1c0.1,0,0.1,0.1,0.1,0.2c-0.1,0.1,0,0.2-0.2,0.1c-0.1-0.1-0.3-0.1-0.4-0.1c-0.1,0-0.2,0-0.2,0.1
		c0,0.1,0.1,0.2,0.1,0.2c0.1,0,0.2,0.1,0.3,0.1c0.4,0.1,0.5,0.3,0.5,0.6C15.2,23.4,15,23.6,14.5,23.6z"/>
	<path class="st6" d="M11,22.1c0.1-0.2,0.3-0.3,0.4-0.4c0.1,0,0.2-0.1,0.2,0.1c0,0.1,0.1,0.3-0.1,0.3c-0.4,0.1-0.6,0.3-0.6,0.7
		c0,0.2,0,0.3,0,0.5c0,0.2-0.1,0.1-0.2,0.1s-0.2,0-0.2-0.2c0-0.5,0-0.9,0-1.4c0-0.2,0-0.2,0.2-0.2c0.1,0,0.3,0,0.2,0.2
		C11,22,11,22,11,22.1z"/>
	<path class="st6" d="M23,22.1c0.1-0.2,0.3-0.3,0.5-0.4c0.1,0,0.2-0.1,0.2,0c0,0.1,0.1,0.3-0.1,0.4c-0.4,0.1-0.5,0.3-0.5,0.7
		c0,0.2,0,0.3,0,0.5c0,0.2-0.1,0.2-0.2,0.2c-0.1,0-0.2,0-0.2-0.2c0-0.4,0-0.9,0-1.3c0-0.1-0.1-0.3,0.2-0.3C23,21.8,23,21.8,23,22.1z
		"/>
	<path class="st6" d="M5.2,22.1c0.2-0.2,0.3-0.3,0.4-0.4c0.1,0,0.2-0.1,0.2,0.1c0,0.1,0.1,0.3-0.1,0.3c-0.4,0.2-0.6,0.3-0.6,0.8
		c0,0.1,0,0.3,0,0.4c0,0.2-0.1,0.3-0.3,0.3c-0.2,0-0.2-0.1-0.2-0.2c0-0.5,0-0.9,0-1.4c0-0.2,0.1-0.2,0.2-0.2c0.1,0,0.3,0,0.2,0.2
		C5.2,22,5.2,22,5.2,22.1z"/>
	<path class="st6" d="M25.7,23.3c0-0.2,0.1-0.2,0.2-0.2c0.2,0,0.2,0.1,0.2,0.3c0,0.2,0,0.2-0.2,0.2C25.7,23.6,25.7,23.5,25.7,23.3z"
		/>
	<path class="st6" d="M27,23.3c0.1,0.2,0,0.2-0.2,0.2c-0.3,0-0.2-0.1-0.2-0.3c0-0.2,0-0.2,0.2-0.2C27,23.1,27.1,23.1,27,23.3z"/>
	<path class="st6" d="M28,23.3c0,0.2,0,0.2-0.2,0.2c-0.2,0-0.2-0.1-0.2-0.3c0-0.2,0.1-0.2,0.2-0.2C28,23,28,23.2,28,23.3z"/>
	<path class="st6" d="M31.4,17.2c0-0.6,0-1.1,0-1.7c0-0.2,0-0.3,0.2-0.2c0.2,0,0.4,0,0.6,0c0.1,0,0.2,0,0.2,0.1c0,1.2,0,2.3,0,3.5
		c0,0.1,0,0.2-0.2,0.1c-0.2,0-0.4,0-0.6,0c-0.1,0-0.2-0.1-0.2-0.1c-0.4-0.6-0.9-1.1-1.3-1.7c0,0-0.1-0.1-0.1-0.2
		c-0.1,0.1,0,0.1,0,0.2c0,0.5,0,1.1,0,1.6c0,0.1,0,0.2-0.2,0.2c-0.2,0-0.5,0-0.7,0c-0.1,0-0.2,0-0.2-0.2c0-1.1,0-2.3,0-3.4
		c0-0.1,0-0.2,0.2-0.2c0.8,0,0.8,0,1.3,0.6C30.6,16.3,31,16.7,31.4,17.2C31.3,17.2,31.3,17.2,31.4,17.2z"/>
	<path class="st6" d="M34.5,15.3c0.5,0,1,0,1.4,0c0.1,0,0.2,0,0.2,0.2c0,0.2,0.1,0.5,0,0.7c-0.1,0.1-0.4,0-0.7,0
		c-0.4,0-0.4,0-0.4,0.4c0,0.8,0,1.5,0,2.2c0,0.1,0,0.2-0.2,0.2c-0.2,0-0.4,0-0.6,0C34,19,34,19,34,18.8c0-0.8,0-1.6,0-2.4
		c0-0.2-0.1-0.3-0.3-0.3c-0.2,0-0.5,0-0.7,0c-0.2,0-0.2,0-0.2-0.2c0-0.2-0.1-0.5,0-0.7c0.1-0.1,0.4,0,0.7-0.1
		C33.8,15.2,34.2,15.3,34.5,15.3z"/>
	<path class="st6" d="M27,16.1c0-0.3,0-0.6,0-0.9l0,0c0.4,0,0.7,0,1.1,0c0.1,0,0.2,0.1,0.2,0.2c0,0.2,0,0.4,0,0.5
		c0,0.1,0,0.2-0.2,0.2C27.7,16.1,27.4,16.1,27,16.1C27,16.1,27,16.1,27,16.1z"/>
	<path class="st6" d="M27,19c0-0.2,0-0.5,0-0.7c0-0.1,0-0.2,0.1-0.2c0.3,0,0.6,0,1,0c0.1,0,0.2,0,0.2,0.2c0,0.2,0.1,0.5,0,0.7
		s-0.4,0-0.6,0C27.4,19,27.2,19,27,19C27,19,27,19,27,19z"/>
	<path class="st6" d="M27,16.7c0.3,0,0.6,0,0.9,0c0.1,0,0.1,0,0.1,0.1c0,0,0,0,0,0c0,0.7,0,0.7-0.6,0.7c-0.1,0-0.3,0-0.4,0l0,0
		C27,17.3,27,17,27,16.7L27,16.7z"/>
</g>
<g id="Light">
	<path class="st7" d="M20,20c-5.4,0-10.7,0-16.1,0c-0.8,0-1.1-0.4-1.1-1.1c0-1.2,0-2.4,0-3.6c0-0.7,0.4-1.1,1.1-1.1
		c10.8,0,21.5,0,32.3,0c0.7,0,1.1,0.4,1.1,1.1c0,1.2,0,2.4,0,3.6c0,0.7-0.4,1.1-1.1,1.1C30.8,20,25.4,20,20,20z M26.3,17.9
		c0,0.2,0,0.3,0.2,0.3c0.1,0,0.2,0,0.2,0c0.2,0,0.3,0,0.2-0.3c0-0.1,0-0.2,0-0.3c0.1,0,0.3,0,0.4,0c0.7,0,0.7,0,0.6-0.7c0,0,0,0,0,0
		c0-0.1,0-0.1-0.1-0.1c-0.3,0-0.6,0-0.9,0c0-0.2,0-0.4,0-0.5c0,0,0,0,0,0c0.4,0,0.7,0,1.1,0c0.1,0,0.2,0,0.2-0.2c0-0.2,0-0.4,0-0.5
		c0-0.1,0-0.2-0.2-0.2c-0.4,0-0.7,0-1.1,0c0-0.2,0-0.3,0-0.5c0-0.2,0-0.2-0.2-0.2c-7.5,0-15,0-22.5,0c-0.5,0-0.9,0.3-1,0.8
		c0,0.3,0,0.6,0,0.9c0,0.3,0,0.6,0,0.9c0,0.3,0,0.5,0,0.8c0,0.3,0,0.5,0,0.8c0.1,0.6,0.5,0.9,1.1,0.9c7.4,0,14.8,0,22.1,0
		c0.5,0,0.5,0,0.5-0.5c0.2,0,0.4,0,0.6,0c0.2,0,0.5,0.1,0.6,0c0.1-0.1,0-0.4,0-0.7c0-0.1,0-0.2-0.2-0.2c-0.3,0-0.6,0-1,0
		c-0.1,0-0.2,0.1-0.1,0.2c0,0.2,0,0.5,0,0.7c-0.5,0-1,0-1.4,0c-0.3,0-0.3,0-0.4-0.3c0-0.3,0-0.5,0-0.8c0-0.3,0-0.5,0-0.8
		c0-0.3,0-0.6,0-0.9c0-0.3,0-0.6,0-0.9c0-0.1,0.1-0.1,0.2-0.1c0.5,0,1,0,1.6,0c0,0.3,0,0.6,0,0.9c-0.2,0-0.5-0.1-0.7,0
		c0,0.1,0,0.2,0,0.3c0,0.2,0,0.3,0.3,0.3c0.1,0,0.3,0,0.5,0c0,0.3,0,0.5,0,0.8c-0.1,0-0.3,0-0.4,0C26.3,17.5,26.3,17.5,26.3,17.9z
		 M31.4,17.2C31.3,17.2,31.3,17.2,31.4,17.2c-0.4-0.4-0.8-0.9-1.1-1.3c-0.5-0.6-0.5-0.6-1.3-0.6c-0.1,0-0.2,0-0.2,0.2
		c0,1.1,0,2.3,0,3.4c0,0.1,0,0.2,0.2,0.2c0.2,0,0.5,0,0.7,0c0.2,0,0.2-0.1,0.2-0.2c0-0.5,0-1.1,0-1.6c0-0.1,0-0.1,0-0.2
		c0,0.1,0.1,0.1,0.1,0.2c0.4,0.6,0.9,1.1,1.3,1.7c0.1,0.1,0.1,0.1,0.2,0.1c0.2,0,0.4,0,0.7,0c0.1,0,0.2,0,0.2-0.1c0-1.2,0-2.3,0-3.5
		c0-0.1,0-0.2-0.2-0.1c-0.2,0-0.4,0-0.6,0c-0.2,0-0.2,0.1-0.2,0.2C31.4,16,31.4,16.6,31.4,17.2z M34.5,15.3c-0.3,0-0.6,0-1,0
		c-0.2,0-0.5-0.1-0.7,0.1c-0.1,0.1,0,0.4,0,0.7c0,0.2,0.1,0.2,0.2,0.2c0.2,0,0.5,0,0.7,0c0.2,0,0.3,0,0.3,0.3c0,0.8,0,1.6,0,2.4
		c0,0.2,0,0.2,0.2,0.2c0.2,0,0.4,0,0.6,0c0.2,0,0.2,0,0.2-0.2c0-0.8,0-1.5,0-2.2c0-0.4,0-0.4,0.4-0.4c0.2,0,0.5,0.1,0.7,0
		s0-0.4,0-0.7c0-0.2-0.1-0.2-0.2-0.2C35.4,15.3,35,15.3,34.5,15.3z"/>
	<path class="st7" d="M3.9,17.9c0-0.3,0-0.5,0-0.8c0-0.3,0-0.6,0-0.9c0-0.3,0-0.6,0-0.9c0-0.1,0-0.1,0.1-0.1c0.3,0,0.6,0,0.9,0
		c0.1,0,0.1,0.1,0.2,0.1c0.2,0.3,0.3,0.6,0.5,0.9c0.1,0.1,0.1,0.3,0.2,0.4c0.1,0.1,0.1,0.1,0.2,0c0.1-0.1,0.2-0.3,0.2-0.4
		c0.2-0.3,0.4-0.6,0.5-0.9c0,0,0.1-0.1,0.1-0.1c0.3,0,0.7,0,1,0c0.1,0,0.1,0,0.1,0.1c0,0.3,0,0.6,0,0.9c0,0.3,0,0.6,0,0.9
		c0,0.3,0,0.5,0,0.8c0,0.3,0,0.5,0,0.8c0,0.3,0,0.3-0.3,0.3c-0.1,0-0.3,0-0.4,0c-0.3,0-0.3,0-0.3-0.3c0-0.3,0-0.5,0-0.8
		c0-0.2,0-0.4,0-0.7c0,0,0-0.1-0.1-0.1c-0.1,0-0.1,0-0.1,0.1c-0.2,0.2-0.3,0.5-0.5,0.7c-0.1,0.1-0.2,0.4-0.3,0.4
		c-0.2,0-0.2-0.3-0.3-0.4c-0.2-0.3-0.4-0.6-0.6-0.9c0,0.3,0,0.6,0,0.9c0,0.3,0,0.5,0,0.8c0,0.3,0,0.3-0.4,0.3c-0.1,0-0.2,0-0.3,0
		c-0.3,0-0.3,0-0.4-0.3C3.9,18.4,3.9,18.1,3.9,17.9z"/>
	<path class="st7" d="M24.6,17.9c0,0.3,0,0.5,0,0.8c0,0.3,0,0.3-0.3,0.3c-0.1,0-0.3,0-0.4,0c-0.3,0-0.3,0-0.3-0.3c0-0.3,0-0.5,0-0.8
		c0-0.2,0-0.4,0-0.7c0,0,0-0.1,0-0.1c-0.1,0-0.1,0-0.1,0.1c-0.1,0.2-0.3,0.5-0.5,0.7c-0.1,0.1-0.2,0.4-0.3,0.4
		c-0.2,0-0.2-0.3-0.4-0.4c-0.2-0.3-0.4-0.6-0.6-0.9c0,0.3,0,0.6,0,0.9c0,0.3,0,0.5,0,0.8c0,0.3,0,0.3-0.4,0.3c-0.1,0-0.2,0-0.3,0
		c-0.3,0-0.3,0-0.3-0.3c0-0.3,0-0.5,0-0.8c0-0.3,0-0.5,0-0.8c0-0.3,0-0.6,0-0.9c0-0.3,0-0.6,0-0.9c0-0.1,0-0.1,0.1-0.1
		c0.3,0,0.6,0,0.9,0c0.1,0,0.1,0.1,0.2,0.1c0.2,0.3,0.3,0.6,0.5,0.9c0.1,0.1,0.1,0.3,0.2,0.4c0,0.1,0.1,0.1,0.1,0
		c0.1-0.1,0.1-0.3,0.2-0.4c0.2-0.3,0.4-0.6,0.5-0.9c0,0,0.1-0.1,0.1-0.1c0.3,0,0.6,0,1,0c0.1,0,0.1,0,0.1,0.1c0,0.3,0,0.6,0,0.9
		c0,0.3,0,0.6,0,0.9C24.6,17.3,24.6,17.6,24.6,17.9z"/>
	<path class="st7" d="M11.8,18.7c-0.3,0.2-0.6,0.3-0.9,0.4c-0.6,0.1-1.2,0-1.7-0.4c-0.3-0.2-0.5-0.5-0.6-0.8
		c-0.1-0.3-0.1-0.5-0.1-0.8c0-0.3,0.1-0.6,0.2-0.9c0.2-0.4,0.5-0.6,0.9-0.9c0.6-0.2,1.2-0.2,1.8,0c0.4,0.2,0.7,0.5,0.9,0.9
		c0.1,0.3,0.2,0.5,0.2,0.9c0,0.3-0.1,0.5-0.1,0.8C12.3,18.2,12.1,18.4,11.8,18.7z M10.2,16.2c-0.4,0.1-0.6,0.4-0.6,0.9
		c0,0.3,0.1,0.6,0.3,0.8c0.4,0.4,0.9,0.4,1.3,0c0.3-0.2,0.3-0.5,0.3-0.8c0-0.4-0.2-0.7-0.6-0.9C10.6,16.1,10.4,16.1,10.2,16.2z"/>
	<path class="st7" d="M20,18.7c0,0.3,0,0.3-0.3,0.3c-0.8,0-1.6,0-2.4,0c-0.3,0-0.3,0-0.4-0.3c0-0.3,0-0.5,0-0.8c0-0.3,0-0.5,0-0.8
		c0-0.3,0-0.6,0-0.9c0-0.3,0-0.6,0-0.9c0-0.1,0.1-0.1,0.2-0.1c0.9,0,1.8,0,2.7,0c0.1,0,0.2,0,0.2,0.1c0,0.2,0,0.4,0,0.6
		c0,0.2-0.1,0.3-0.3,0.3c-0.5,0-1,0-1.5,0c-0.1,0-0.2,0-0.2,0c0,0.1,0,0.2,0,0.3c0,0.2,0,0.3,0.3,0.3c0.4,0,0.9,0,1.3,0
		c0.2,0,0.3,0,0.3,0.2c0,0,0,0.1,0,0.1c0,0.1,0,0.2,0,0.2c0,0.2,0,0.3-0.3,0.3c-0.4,0-0.8,0-1.2,0c-0.3,0-0.3,0-0.3,0.3
		c0,0.2,0,0.3,0.2,0.3c0.4,0,0.8,0,1.3,0C20,18.1,20,18.1,20,18.7C20,18.6,20,18.7,20,18.7z"/>
	<path class="st7" d="M15.2,18.7c-0.1,0.3-0.3,0.4-0.6,0.4c-0.3,0-0.6,0-0.7-0.4c-0.1-0.3-0.2-0.6-0.3-0.8c-0.1-0.3-0.2-0.6-0.3-0.8
		c-0.1-0.3-0.2-0.6-0.3-0.9c-0.1-0.3-0.2-0.6-0.3-0.9c0-0.1,0-0.1,0.1-0.1c0.3,0,0.7,0,1,0c0.1,0,0.1,0.1,0.1,0.1
		c0.1,0.3,0.2,0.6,0.3,0.9c0.1,0.3,0.2,0.6,0.3,0.9c0.1,0.2,0.1,0.3,0.2,0.5c0,0,0,0,0.1,0c0.1-0.2,0.1-0.3,0.2-0.5
		c0.1-0.3,0.2-0.6,0.3-0.9c0.1-0.3,0.2-0.6,0.3-0.9c0,0,0,0,0,0c0.4-0.1,0.8-0.1,1.1,0c0,0,0,0,0,0c-0.1,0.3-0.2,0.6-0.3,0.9
		c-0.1,0.3-0.2,0.6-0.3,0.9c-0.1,0.3-0.2,0.5-0.3,0.8C15.4,18.1,15.3,18.4,15.2,18.7z"/>
</g>
</svg>
