<?xml version="1.0" encoding="utf-8"?>
<!-- Generator: Adobe Illustrator 24.1.2, SVG Export Plug-In . SVG Version: 6.00 Build 0)  -->
<svg version="1.1" id="Layer_1" xmlns="http://www.w3.org/2000/svg" xmlns:xlink="http://www.w3.org/1999/xlink" x="0px" y="0px"
	 viewBox="0 0 918 612" style="enable-background:new 0 0 918 612;" xml:space="preserve">
<style type="text/css">
	.st0{fill:#2A2A7F;}
	.st1{fill:#FFFFFF;}
	.st2{fill:#E70039;stroke:#000000;stroke-width:0.25;}
</style>
<path d="M0,0h918v612H0V0z"/>
<path class="st0" d="M0,68h918v68H0V68z M0,204h918v204H0V204z M0,476h918v68H0V476z"/>
<path class="st1" d="M0,272h918v68H0V272z"/>
<path class="st2" d="M173.4,95.5c-24.8-9.7-52.4-8.5-73.7,8.2c-30.2,23.6-34.9,65.1-11,95.8c46.6,59.6,85.6,43.6,210.3,56.7
	c17.4-124.1,42.4-158.1-4.2-217.7c-24-30.7-65.4-36.1-95.6-12.5C177.8,42.6,169.9,69.1,173.4,95.5z"/>
</svg>
