<?xml version="1.0" encoding="UTF-8"?>
<!DOCTYPE svg PUBLIC "-//W3C//DTD SVG 1.1//EN" "http://www.w3.org/Graphics/SVG/1.1/DTD/svg11.dtd">
<svg version="1.1" xmlns="http://www.w3.org/2000/svg" xmlns:xlink="http://www.w3.org/1999/xlink" x="0" y="0" width="1575" height="945" viewBox="0, 0, 1575, 945">
  <g id="Layer_1">
    <path d="M0,0 L1575,0 L1575,945 L0,945 z" fill="#8A1E04"/>
    <path d="M0,0 L1575,0 L1575,810 L0,810 z" fill="#C54E54"/>
    <path d="M0,0 L1575,0 L1575,675 L0,675 z" fill="#E4ACCF"/>
    <path d="M0,0 L1575,0 L1575,540 L0,540 z" fill="#EDEDEB"/>
    <path d="M0,0 L1575,0 L1575,405 L0,405 z" fill="#D063A6"/>
    <path d="M0,0 L1575,0 L1575,270 L0,270 z" fill="#B75592"/>
    <path d="M0,0 L1575,0 L1575,135 L0,135 z" fill="#A40061"/>
    <g>
      <path d="M117.865,333.704 C149.562,317.427 163.269,312.287 111.869,296.867 C121.292,296.01 176.119,314.857 193.252,294.297 C207.815,284.017 137.569,271.167 133.285,260.887 C146.992,269.454 206.958,296.01 218.095,272.024 C216.382,263.457 207.815,247.181 177.832,238.614 C186.399,242.041 204.389,240.327 211.242,233.474 C208.672,225.764 175.262,205.204 171.835,178.647 C182.972,194.067 196.679,220.624 213.812,225.764 C213.812,225.764 218.952,212.914 237.798,207.774 C220.665,207.774 203.532,197.494 200.962,188.927 C212.955,208.631 255.788,198.351 273.778,214.627 C273.778,214.627 270.352,203.491 282.345,188.927 C283.202,185.501 275.492,179.504 279.775,177.791 C281.488,179.504 281.488,185.501 286.628,184.644 C297.765,180.361 308.045,165.798 301.192,152.091 C306.332,154.661 307.188,166.654 308.045,173.507 C314.898,173.507 326.891,172.651 339.741,184.644 C342.311,182.931 341.455,178.647 344.025,176.934 C346.595,185.501 346.595,203.491 358.588,202.634 C368.011,202.634 380.005,182.074 381.718,173.507 C380.861,193.211 391.998,190.641 395.425,191.497 C403.991,190.641 413.415,162.371 417.698,162.371 C415.985,165.798 415.985,176.934 416.841,182.931 C426.264,184.644 450.251,173.507 455.391,168.368 C454.534,172.651 452.821,174.364 453.678,179.504 C462.244,181.217 511.074,158.088 522.211,134.101 C509.361,128.104 499.081,121.251 488.801,117.824 C482.804,122.964 482.804,144.381 475.094,142.668 C478.521,137.528 487.088,119.538 480.234,113.541 C447.681,91.268 463.958,130.674 460.531,134.101 C460.531,127.248 445.968,86.984 432.261,90.411 C429.691,93.838 424.551,70.708 415.128,121.251 C415.985,112.684 426.264,79.274 376.578,65.568 C374.008,78.418 391.141,116.968 386.858,125.534 C385.145,109.258 372.295,69.851 363.728,59.571 C344.881,51.861 311.471,38.155 296.908,43.295 C279.775,47.578 322.608,86.128 310.615,101.548 C313.185,79.274 286.628,55.288 268.638,55.288 C231.802,74.134 261.785,109.258 255.788,126.391 C252.362,105.831 242.082,101.548 243.795,77.561 C234.372,84.414 233.515,96.408 223.235,105.831 C218.095,107.544 215.525,104.974 210.385,105.831 C201.819,115.254 218.095,134.958 214.668,142.668 C208.672,129.818 208.672,110.971 194.109,109.258 C182.115,101.548 157.272,107.544 138.425,120.394 C117.009,126.391 96.449,184.644 97.306,192.354 C99.019,202.634 117.009,204.347 117.865,214.627 C110.155,210.344 107.585,201.777 95.592,202.634 C91.309,212.057 88.739,218.911 87.882,232.617 C100.732,241.184 117.009,248.894 121.292,261.744 C109.299,257.461 102.445,239.471 87.026,244.611 C67.322,300.294 91.309,290.014 93.879,297.724 C87.026,300.294 80.172,293.44 77.602,297.724 C62.182,325.994 80.172,325.994 81.886,331.134 C78.459,331.134 74.176,331.134 70.749,331.134 C64.752,336.274 63.896,354.264 65.609,362.83 C78.459,356.834 105.872,350.837 99.019,335.417 C105.872,337.13 113.582,337.13 117.865,333.704" fill="#F30943"/>
      <path d="M117.865,333.704 C149.562,317.427 163.269,312.287 111.869,296.867 C121.292,296.01 176.119,314.857 193.252,294.297 C207.815,284.017 137.569,271.167 133.285,260.887 C146.992,269.454 206.958,296.01 218.095,272.024 C216.382,263.457 207.815,247.181 177.832,238.614 C186.399,242.041 204.389,240.327 211.242,233.474 C208.672,225.764 175.262,205.204 171.835,178.647 C182.972,194.067 196.679,220.624 213.812,225.764 C213.812,225.764 218.952,212.914 237.798,207.774 C220.665,207.774 203.532,197.494 200.962,188.927 C212.955,208.631 255.788,198.351 273.778,214.627 C273.778,214.627 270.352,203.491 282.345,188.927 C283.202,185.501 275.492,179.504 279.775,177.791 C281.488,179.504 281.488,185.501 286.628,184.644 C297.765,180.361 308.045,165.798 301.192,152.091 C306.332,154.661 307.188,166.654 308.045,173.507 C314.898,173.507 326.891,172.651 339.741,184.644 C342.311,182.931 341.455,178.647 344.025,176.934 C346.595,185.501 346.595,203.491 358.588,202.634 C368.011,202.634 380.005,182.074 381.718,173.507 C380.861,193.211 391.998,190.641 395.425,191.497 C403.991,190.641 413.415,162.371 417.698,162.371 C415.985,165.798 415.985,176.934 416.841,182.931 C426.264,184.644 450.251,173.507 455.391,168.368 C454.534,172.651 452.821,174.364 453.678,179.504 C462.244,181.217 511.074,158.088 522.211,134.101 C509.361,128.104 499.081,121.251 488.801,117.824 C482.804,122.964 482.804,144.381 475.094,142.668 C478.521,137.528 487.088,119.538 480.234,113.541 C447.681,91.268 463.958,130.674 460.531,134.101 C460.531,127.248 445.968,86.984 432.261,90.411 C429.691,93.838 424.551,70.708 415.128,121.251 C415.985,112.684 426.264,79.274 376.578,65.568 C374.008,78.418 391.141,116.968 386.858,125.534 C385.145,109.258 372.295,69.851 363.728,59.571 C344.881,51.861 311.471,38.155 296.908,43.295 C279.775,47.578 322.608,86.128 310.615,101.548 C313.185,79.274 286.628,55.288 268.638,55.288 C231.802,74.134 261.785,109.258 255.788,126.391 C252.362,105.831 242.082,101.548 243.795,77.561 C234.372,84.414 233.515,96.408 223.235,105.831 C218.095,107.544 215.525,104.974 210.385,105.831 C201.819,115.254 218.095,134.958 214.668,142.668 C208.672,129.818 208.672,110.971 194.109,109.258 C182.115,101.548 157.272,107.544 138.425,120.394 C117.009,126.391 96.449,184.644 97.306,192.354 C99.019,202.634 117.009,204.347 117.865,214.627 C110.155,210.344 107.585,201.777 95.592,202.634 C91.309,212.057 88.739,218.911 87.882,232.617 C100.732,241.184 117.009,248.894 121.292,261.744 C109.299,257.461 102.445,239.471 87.026,244.611 C67.322,300.294 91.309,290.014 93.879,297.724 C87.026,300.294 80.172,293.44 77.602,297.724 C62.182,325.994 80.172,325.994 81.886,331.134 C78.459,331.134 74.176,331.134 70.749,331.134 C64.752,336.274 63.896,354.264 65.609,362.83 C78.459,356.834 105.872,350.837 99.019,335.417 C105.872,337.13 113.582,337.13 117.865,333.704" fill-opacity="0" stroke="#000000" stroke-width="1"/>
    </g>
    <g>
      <path d="M453.488,191.877 C438.924,195.303 394.378,198.73 383.241,211.58 C396.091,232.14 446.634,235.567 459.484,256.126 C439.781,244.133 399.518,227 373.818,220.147 C342.978,213.293 352.401,230.427 342.121,255.27 C346.405,264.693 360.968,290.393 361.825,298.96 C354.115,290.393 347.261,250.987 334.411,272.403 C313.851,305.813 345.548,312.666 359.255,343.506 C350.688,331.513 333.555,308.383 322.418,294.676 L314.708,307.526 C301.858,304.1 295.861,304.956 295.861,304.956 C303.571,323.803 327.558,362.353 334.411,374.346 C311.281,351.216 301.001,328.943 289.008,304.1 C278.728,304.1 269.305,299.816 259.025,298.103 C258.168,319.52 267.591,333.226 267.591,348.646 C259.882,325.516 254.742,275.83 209.338,292.106 C196.488,318.663 215.335,370.063 216.192,392.336 C207.625,367.493 208.482,332.37 197.345,310.953 C182.782,310.096 159.652,309.24 163.935,318.663 C134.809,326.373 58.565,371.776 71.415,383.769 C94.545,406.043 145.089,435.169 177.642,441.166 C179.355,432.599 182.782,418.036 186.208,412.896 C189.635,426.603 193.918,443.736 207.625,447.163 C211.052,442.879 205.912,431.743 206.768,424.889 C218.762,439.453 251.315,456.586 274.445,445.449 C277.015,436.883 267.591,424.889 272.731,418.893 C276.158,442.023 329.271,443.736 333.555,423.176 C335.268,413.753 325.845,407.756 325.845,401.759 C333.555,410.326 336.981,421.463 349.831,420.606 C378.101,418.893 359.255,379.486 354.115,364.066 C360.968,377.773 369.535,398.333 379.814,408.613 C387.524,406.899 390.951,395.763 386.668,386.339 C411.511,403.473 414.081,389.766 404.658,355.5 C404.658,354.643 403.801,353.786 403.801,352.93 C403.801,353.786 404.658,354.643 404.658,355.5 C407.228,362.353 416.651,378.629 422.648,381.199 C444.921,371.776 413.224,334.083 408.941,327.23 C418.364,334.94 429.501,359.783 444.064,363.21 C446.634,361.496 446.634,347.79 448.348,345.22 C443.208,311.81 409.798,290.393 396.948,268.976 C417.508,287.823 438.068,327.23 464.624,340.936 C473.191,329.8 456.914,299.816 451.774,291.25 C459.484,294.676 472.334,314.38 481.758,315.236 C491.181,310.096 477.474,285.253 471.478,276.686 C475.761,278.4 487.754,291.25 494.607,289.536 C497.177,277.543 481.758,262.98 478.331,253.557 C482.614,254.413 496.321,268.12 502.317,268.12 C508.314,243.277 518.594,214.15 516.881,155.897 C508.314,156.753 464.624,189.307 453.488,191.877" fill="#EB1449"/>
      <path d="M453.488,191.877 C438.924,195.303 394.378,198.73 383.241,211.58 C396.091,232.14 446.634,235.567 459.484,256.126 C439.781,244.133 399.518,227 373.818,220.147 C342.978,213.293 352.401,230.427 342.121,255.27 C346.405,264.693 360.968,290.393 361.825,298.96 C354.115,290.393 347.261,250.987 334.411,272.403 C313.851,305.813 345.548,312.666 359.255,343.506 C350.688,331.513 333.555,308.383 322.418,294.676 L314.708,307.526 C301.858,304.1 295.861,304.956 295.861,304.956 C303.571,323.803 327.558,362.353 334.411,374.346 C311.281,351.216 301.001,328.943 289.008,304.1 C278.728,304.1 269.305,299.816 259.025,298.103 C258.168,319.52 267.591,333.226 267.591,348.646 C259.882,325.516 254.742,275.83 209.338,292.106 C196.488,318.663 215.335,370.063 216.192,392.336 C207.625,367.493 208.482,332.37 197.345,310.953 C182.782,310.096 159.652,309.24 163.935,318.663 C134.809,326.373 58.565,371.776 71.415,383.769 C94.545,406.043 145.089,435.169 177.642,441.166 C179.355,432.599 182.782,418.036 186.208,412.896 C189.635,426.603 193.918,443.736 207.625,447.163 C211.052,442.879 205.912,431.743 206.768,424.889 C218.762,439.453 251.315,456.586 274.445,445.449 C277.015,436.883 267.591,424.889 272.731,418.893 C276.158,442.023 329.271,443.736 333.555,423.176 C335.268,413.753 325.845,407.756 325.845,401.759 C333.555,410.326 336.981,421.463 349.831,420.606 C378.101,418.893 359.255,379.486 354.115,364.066 C360.968,377.773 369.535,398.333 379.814,408.613 C387.524,406.899 390.951,395.763 386.668,386.339 C411.511,403.473 414.081,389.766 404.658,355.5 C404.658,354.643 403.801,353.786 403.801,352.93 C403.801,353.786 404.658,354.643 404.658,355.5 C407.228,362.353 416.651,378.629 422.648,381.199 C444.921,371.776 413.224,334.083 408.941,327.23 C418.364,334.94 429.501,359.783 444.064,363.21 C446.634,361.496 446.634,347.79 448.348,345.22 C443.208,311.81 409.798,290.393 396.948,268.976 C417.508,287.823 438.068,327.23 464.624,340.936 C473.191,329.8 456.914,299.816 451.774,291.25 C459.484,294.676 472.334,314.38 481.758,315.236 C491.181,310.096 477.474,285.253 471.478,276.686 C475.761,278.4 487.754,291.25 494.607,289.536 C497.177,277.543 481.758,262.98 478.331,253.557 C482.614,254.413 496.321,268.12 502.317,268.12 C508.314,243.277 518.594,214.15 516.881,155.897 C508.314,156.753 464.624,189.307 453.488,191.877" fill-opacity="0" stroke="#000000" stroke-width="1"/>
    </g>
  </g>
</svg>
