<?xml version="1.0" encoding="utf-8"?>
<!-- Generator: Adobe Illustrator 24.1.2, SVG Export Plug-In . SVG Version: 6.00 Build 0)  -->
<svg version="1.1" id="Layer_1" xmlns="http://www.w3.org/2000/svg" xmlns:xlink="http://www.w3.org/1999/xlink" x="0px" y="0px"
	 viewBox="0 0 1575 945" style="enable-background:new 0 0 1575 945;" xml:space="preserve">
<style type="text/css">
	.st0{fill:#8A1E04;}
	.st1{fill:#C54E54;}
	.st2{fill:#E4ACCF;}
	.st3{fill:#EDEDEB;}
	.st4{fill:#D063A6;}
	.st5{fill:#B75592;}
	.st6{fill:#A40061;}
	.st7{fill:#F30943;}
	.st8{fill-opacity:0;stroke:#000000;}
	.st9{fill:#EB1449;}
</style>
<g id="Layer_1_1_">
	<path class="st0" d="M0,0h1575v945H0V0z"/>
	<path class="st1" d="M0,0h1575v810H0V0z"/>
	<path class="st2" d="M0,0h1575v675H0V0z"/>
	<path class="st3" d="M0,0h1575v540H0V0z"/>
	<path class="st4" d="M0,0h1575v405H0V0z"/>
	<path class="st5" d="M0,0h1575v270H0V0z"/>
	<path class="st6" d="M0,0h1575v135H0V0z"/>
	<g>
		<path class="st7" d="M117.9,333.7c31.7-16.3,45.4-21.4-6-36.8c9.4-0.9,64.3,18,81.4-2.6c14.6-10.3-55.7-23.1-60-33.4
			C147,269.5,207,296,218.1,272c-1.7-8.6-10.3-24.8-40.3-33.4c8.6,3.4,26.6,1.7,33.4-5.1c-2.6-7.7-36-28.3-39.4-54.8
			c11.1,15.4,24.8,42,42,47.1c0,0,5.1-12.9,24-18c-17.1,0-34.3-10.3-36.8-18.8c12,19.7,54.8,9.4,72.8,25.7c0,0-3.4-11.1,8.6-25.7
			c0.9-3.4-6.9-9.4-2.6-11.1c1.7,1.7,1.7,7.7,6.9,6.9c11.1-4.3,21.4-18.8,14.6-32.6c5.1,2.6,6,14.6,6.9,21.4
			c6.9,0,18.8-0.9,31.7,11.1c2.6-1.7,1.7-6,4.3-7.7c2.6,8.6,2.6,26.6,14.6,25.7c9.4,0,21.4-20.6,23.1-29.1
			c-0.9,19.7,10.3,17.1,13.7,18c8.6-0.9,18-29.1,22.3-29.1c-1.7,3.4-1.7,14.6-0.9,20.6c9.4,1.7,33.4-9.4,38.5-14.6
			c-0.9,4.3-2.6,6-1.7,11.1c8.6,1.7,57.4-21.4,68.5-45.4c-12.9-6-23.1-12.8-33.4-16.3c-6,5.1-6,26.6-13.7,24.8
			c3.4-5.1,12-23.1,5.1-29.1c-32.6-22.3-16.3,17.1-19.7,20.6c0-6.9-14.6-47.1-28.3-43.7c-2.6,3.4-7.7-19.7-17.1,30.8
			c0.9-8.6,11.1-42-38.5-55.7c-2.6,12.8,14.6,51.4,10.3,60c-1.7-16.3-14.6-55.7-23.1-66c-18.8-7.7-52.3-21.4-66.8-16.3
			c-17.1,4.3,25.7,42.8,13.7,58.3c2.6-22.3-24-46.3-42-46.3c-36.8,18.8-6.9,54-12.9,71.1c-3.4-20.6-13.7-24.8-12-48.8
			c-9.4,6.9-10.3,18.8-20.6,28.3c-5.1,1.7-7.7-0.9-12.9,0c-8.6,9.4,7.7,29.1,4.3,36.8c-6-12.9-6-31.7-20.6-33.4
			c-12-7.7-36.8-1.7-55.7,11.1c-21.4,6-42,64.3-41.1,72c1.7,10.3,19.7,12,20.6,22.3c-7.7-4.3-10.3-12.9-22.3-12
			c-4.3,9.4-6.9,16.3-7.7,30c12.8,8.6,29.1,16.3,33.4,29.1c-12-4.3-18.8-22.3-34.3-17.1c-19.7,55.7,4.3,45.4,6.9,53.1
			c-6.9,2.6-13.7-4.3-16.3,0c-15.4,28.3,2.6,28.3,4.3,33.4c-3.4,0-7.7,0-11.1,0c-6,5.1-6.9,23.1-5.1,31.7c12.8-6,40.3-12,33.4-27.4
			C105.9,337.1,113.6,337.1,117.9,333.7"/>
		<path class="st8" d="M117.9,333.7c31.7-16.3,45.4-21.4-6-36.8c9.4-0.9,64.3,18,81.4-2.6c14.6-10.3-55.7-23.1-60-33.4
			C147,269.5,207,296,218.1,272c-1.7-8.6-10.3-24.8-40.3-33.4c8.6,3.4,26.6,1.7,33.4-5.1c-2.6-7.7-36-28.3-39.4-54.8
			c11.1,15.4,24.8,42,42,47.1c0,0,5.1-12.9,24-18c-17.1,0-34.3-10.3-36.8-18.8c12,19.7,54.8,9.4,72.8,25.7c0,0-3.4-11.1,8.6-25.7
			c0.9-3.4-6.9-9.4-2.6-11.1c1.7,1.7,1.7,7.7,6.9,6.9c11.1-4.3,21.4-18.8,14.6-32.6c5.1,2.6,6,14.6,6.9,21.4
			c6.9,0,18.8-0.9,31.7,11.1c2.6-1.7,1.7-6,4.3-7.7c2.6,8.6,2.6,26.6,14.6,25.7c9.4,0,21.4-20.6,23.1-29.1
			c-0.9,19.7,10.3,17.1,13.7,18c8.6-0.9,18-29.1,22.3-29.1c-1.7,3.4-1.7,14.6-0.9,20.6c9.4,1.7,33.4-9.4,38.5-14.6
			c-0.9,4.3-2.6,6-1.7,11.1c8.6,1.7,57.4-21.4,68.5-45.4c-12.9-6-23.1-12.8-33.4-16.3c-6,5.1-6,26.6-13.7,24.8
			c3.4-5.1,12-23.1,5.1-29.1c-32.6-22.3-16.3,17.1-19.7,20.6c0-6.9-14.6-47.1-28.3-43.7c-2.6,3.4-7.7-19.7-17.1,30.8
			c0.9-8.6,11.1-42-38.5-55.7c-2.6,12.8,14.6,51.4,10.3,60c-1.7-16.3-14.6-55.7-23.1-66c-18.8-7.7-52.3-21.4-66.8-16.3
			c-17.1,4.3,25.7,42.8,13.7,58.3c2.6-22.3-24-46.3-42-46.3c-36.8,18.8-6.9,54-12.9,71.1c-3.4-20.6-13.7-24.8-12-48.8
			c-9.4,6.9-10.3,18.8-20.6,28.3c-5.1,1.7-7.7-0.9-12.9,0c-8.6,9.4,7.7,29.1,4.3,36.8c-6-12.9-6-31.7-20.6-33.4
			c-12-7.7-36.8-1.7-55.7,11.1c-21.4,6-42,64.3-41.1,72c1.7,10.3,19.7,12,20.6,22.3c-7.7-4.3-10.3-12.9-22.3-12
			c-4.3,9.4-6.9,16.3-7.7,30c12.8,8.6,29.1,16.3,33.4,29.1c-12-4.3-18.8-22.3-34.3-17.1c-19.7,55.7,4.3,45.4,6.9,53.1
			c-6.9,2.6-13.7-4.3-16.3,0c-15.4,28.3,2.6,28.3,4.3,33.4c-3.4,0-7.7,0-11.1,0c-6,5.1-6.9,23.1-5.1,31.7c12.8-6,40.3-12,33.4-27.4
			C105.9,337.1,113.6,337.1,117.9,333.7"/>
	</g>
	<g>
		<path class="st9" d="M453.5,191.9c-14.6,3.4-59.1,6.9-70.2,19.7c12.9,20.6,63.4,24,76.2,44.5c-19.7-12-60-29.1-85.7-36
			c-30.8-6.9-21.4,10.3-31.7,35.1c4.3,9.4,18.8,35.1,19.7,43.7c-7.7-8.6-14.6-48-27.4-26.6c-20.6,33.4,11.1,40.3,24.8,71.1
			c-8.6-12-25.7-35.1-36.8-48.8l-7.7,12.9c-12.9-3.4-18.8-2.6-18.8-2.6c7.7,18.8,31.7,57.4,38.6,69.4
			c-23.1-23.1-33.4-45.4-45.4-70.2c-10.3,0-19.7-4.3-30-6c-0.9,21.4,8.6,35.1,8.6,50.5c-7.7-23.1-12.8-72.8-58.3-56.5
			c-12.8,26.6,6,78,6.9,100.2c-8.6-24.8-7.7-60-18.8-81.4c-14.6-0.9-37.7-1.7-33.4,7.7c-29.1,7.7-105.4,53.1-92.5,65.1
			c23.1,22.3,73.7,51.4,106.2,57.4c1.7-8.6,5.1-23.1,8.6-28.3c3.4,13.7,7.7,30.8,21.4,34.3c3.4-4.3-1.7-15.4-0.9-22.3
			c12,14.6,44.5,31.7,67.7,20.6c2.6-8.6-6.9-20.6-1.7-26.6c3.4,23.1,56.5,24.8,60.8,4.3c1.7-9.4-7.7-15.4-7.7-21.4
			c7.7,8.6,11.1,19.7,24,18.8c28.3-1.7,9.4-41.1,4.3-56.5c6.9,13.7,15.4,34.3,25.7,44.5c7.7-1.7,11.1-12.9,6.9-22.3
			c24.8,17.1,27.4,3.4,18-30.8c0-0.9-0.9-1.7-0.9-2.6c0,0.9,0.9,1.7,0.9,2.6c2.6,6.9,12,23.1,18,25.7c22.3-9.4-9.4-47.1-13.7-54
			c9.4,7.7,20.6,32.6,35.1,36c2.6-1.7,2.6-15.4,4.3-18c-5.1-33.4-38.5-54.8-51.4-76.2c20.6,18.8,41.1,58.3,67.7,72
			c8.6-11.1-7.7-41.1-12.9-49.7c7.7,3.4,20.6,23.1,30,24c9.4-5.1-4.3-30-10.3-38.5c4.3,1.7,16.3,14.6,23.1,12.9
			c2.6-12-12.8-26.6-16.3-36c4.3,0.9,18,14.6,24,14.6c6-24.8,16.3-54,14.6-112.2C508.3,156.8,464.6,189.3,453.5,191.9"/>
		<path class="st8" d="M453.5,191.9c-14.6,3.4-59.1,6.9-70.2,19.7c12.9,20.6,63.4,24,76.2,44.5c-19.7-12-60-29.1-85.7-36
			c-30.8-6.9-21.4,10.3-31.7,35.1c4.3,9.4,18.8,35.1,19.7,43.7c-7.7-8.6-14.6-48-27.4-26.6c-20.6,33.4,11.1,40.3,24.8,71.1
			c-8.6-12-25.7-35.1-36.8-48.8l-7.7,12.9c-12.9-3.4-18.8-2.6-18.8-2.6c7.7,18.8,31.7,57.4,38.6,69.4
			c-23.1-23.1-33.4-45.4-45.4-70.2c-10.3,0-19.7-4.3-30-6c-0.9,21.4,8.6,35.1,8.6,50.5c-7.7-23.1-12.8-72.8-58.3-56.5
			c-12.8,26.6,6,78,6.9,100.2c-8.6-24.8-7.7-60-18.8-81.4c-14.6-0.9-37.7-1.7-33.4,7.7c-29.1,7.7-105.4,53.1-92.5,65.1
			c23.1,22.3,73.7,51.4,106.2,57.4c1.7-8.6,5.1-23.1,8.6-28.3c3.4,13.7,7.7,30.8,21.4,34.3c3.4-4.3-1.7-15.4-0.9-22.3
			c12,14.6,44.5,31.7,67.7,20.6c2.6-8.6-6.9-20.6-1.7-26.6c3.4,23.1,56.5,24.8,60.8,4.3c1.7-9.4-7.7-15.4-7.7-21.4
			c7.7,8.6,11.1,19.7,24,18.8c28.3-1.7,9.4-41.1,4.3-56.5c6.9,13.7,15.4,34.3,25.7,44.5c7.7-1.7,11.1-12.9,6.9-22.3
			c24.8,17.1,27.4,3.4,18-30.8c0-0.9-0.9-1.7-0.9-2.6c0,0.9,0.9,1.7,0.9,2.6c2.6,6.9,12,23.1,18,25.7c22.3-9.4-9.4-47.1-13.7-54
			c9.4,7.7,20.6,32.6,35.1,36c2.6-1.7,2.6-15.4,4.3-18c-5.1-33.4-38.5-54.8-51.4-76.2c20.6,18.8,41.1,58.3,67.7,72
			c8.6-11.1-7.7-41.1-12.9-49.7c7.7,3.4,20.6,23.1,30,24c9.4-5.1-4.3-30-10.3-38.5c4.3,1.7,16.3,14.6,23.1,12.9
			c2.6-12-12.8-26.6-16.3-36c4.3,0.9,18,14.6,24,14.6c6-24.8,16.3-54,14.6-112.2C508.3,156.8,464.6,189.3,453.5,191.9"/>
	</g>
</g>
</svg>
